<svg width="529" height="133" viewBox="0 0 529 133" fill="none" xmlns="http://www.w3.org/2000/svg">
<g clip-path="url(#clip0_778_6612)">
<path fill-rule="evenodd" clip-rule="evenodd" d="M181.986 36.5767C189.765 36.5074 198.154 38.9568 203.978 44.5373L198.862 52.6558C194.647 49.0814 188.352 46.4464 182.577 46.499C169.526 46.6154 162.751 56.1803 162.85 67.1971C162.95 78.383 170.151 88.4938 183.039 88.3746C189.395 88.3192 195.725 85.1494 200.203 80.6495L205.961 88.4217C200.905 93.6808 193.333 98.2055 182.707 98.3025C164.051 98.4688 151.882 85.0413 151.724 67.4659C151.569 50.1427 164.084 36.7429 181.986 36.5794M227.475 89.7379C233.415 89.6852 237.21 83.5949 237.163 78.383L237.152 77.2054L235.313 77.222C229.958 77.2691 220.929 78.1087 220.984 84.163C221.011 87.0225 223.21 89.7794 227.475 89.7379ZM235.163 69.907L237.002 69.8904L236.997 69.3002C236.947 63.6671 233.332 61.7635 228.899 61.8051C224.715 61.8411 220.464 63.6477 217.057 66.0334L213.055 58.4164C216.542 55.5264 223.382 53.0243 229.74 52.9661C240.866 52.8664 247.531 59.0287 247.628 69.8765L247.869 96.7037L237.995 96.7924L237.965 93.1765C237.952 92.134 238.026 91.0922 238.186 90.062H238.02C235.467 94.6284 230.393 97.8703 224.621 97.9229C216.924 97.9922 210.521 93.0047 210.45 85.1854C210.336 72.3176 225.71 69.9901 235.163 69.907ZM258.209 36.8981L268.749 36.8039L269.153 81.539C269.194 86.2494 270.796 87.4131 273.553 87.3854C273.973 87.3854 274.557 87.3799 275.143 87.2885L275.226 96.6234C274.474 96.7148 273.304 96.8949 271.88 96.906C266.028 96.9614 258.735 95.5095 258.624 83.2347L258.209 36.8981ZM282.386 36.6792L292.929 36.5822L293.327 81.3201C293.369 86.0305 294.973 87.1942 297.733 87.1665C298.148 87.1665 298.737 87.1582 299.32 87.0696L299.403 96.4045C298.651 96.4959 297.481 96.6733 296.06 96.6871C290.205 96.7425 282.912 95.2906 282.801 83.0158L282.386 36.6792ZM308.887 62.3426L303.366 62.3925L303.289 53.8971L309.061 53.8473L308.95 41.5669L319.327 41.4755L319.435 53.7503L329.142 53.6644L329.217 62.157L319.509 62.2429L319.662 78.9787C319.725 86.0443 325.256 87.0031 328.185 86.9753C328.769 86.9726 329.272 86.967 330.107 86.7925L330.19 96.1246C329.355 96.2161 328.351 96.3934 326.93 96.4073C320.989 96.4627 309.177 94.8002 309.05 80.4196L308.887 62.3426ZM358.646 87.6265C365.588 87.5628 371.313 82.1292 371.241 74.1381C371.171 66.2329 365.35 60.8215 358.405 60.8852C351.461 60.9461 345.822 66.4656 345.894 74.3681C345.966 82.3591 351.704 87.6875 358.646 87.6265ZM358.239 51.7996C371.293 51.6832 381.83 60.924 381.949 74.0411C382.068 87.2441 371.694 96.5901 358.726 96.7065C345.758 96.8229 335.218 87.6681 335.099 74.465C334.983 61.3479 345.354 51.9188 358.239 51.7996ZM390.122 52.5228L400.747 52.4258L400.977 77.8233C401.021 83.0352 402.393 86.557 407.664 86.5071C415.361 86.4406 419.565 79.5883 419.495 71.9353L419.321 52.2596L429.861 52.1626L430.248 95.0496L420.04 95.141L419.996 90.0981C419.979 88.4993 420.217 87.1499 420.217 87.1499L420.051 87.1527C418.082 91.5444 412.603 96.2188 405.324 96.2853C396.123 96.3685 390.473 91.7938 390.371 80.1037L390.122 52.5228ZM461.895 50.8631C467.667 50.8104 474.208 52.6863 478.348 57.1058L473.646 64.4651C470.944 61.7996 466.743 59.9015 462.562 59.9403C454.699 60.0124 449.646 66.0278 449.713 73.3456C449.776 80.5775 454.94 86.7537 463.134 86.6789C467.653 86.6373 472.482 84.2405 475.635 81.0984L479.803 88.6295C475.826 92.9548 469.155 95.7062 462.296 95.77C448.158 95.8974 439.035 85.9723 438.921 73.5257C438.811 61.3341 447.755 50.9905 461.895 50.8603M487.016 34.8255L497.641 34.7285L497.829 55.5846C497.849 57.6849 497.611 59.2005 497.611 59.2005H497.777C499.832 55.0609 505.147 50.4724 512.509 50.4031C521.962 50.32 527.444 55.2327 527.546 66.5848L527.795 94.1657L517.169 94.2626L516.94 68.8652C516.893 63.6532 515.524 60.1315 510.169 60.1814C502.722 60.2507 497.926 66.3465 498.001 74.5066L498.178 94.4344L487.552 94.5314L487.016 34.8255Z" fill="white"/>
<path fill-rule="evenodd" clip-rule="evenodd" d="M66.3438 57.7521L103.431 94.3631C120.279 73.0721 120.216 42.3324 102.441 20.8086L66.3438 57.7521Z" fill="#1EB0CD"/>
<path fill-rule="evenodd" clip-rule="evenodd" d="M42.6529 99.745L57.8307 84.4888L73.0057 99.745H42.6529ZM57.7229 66.5781L9.80273 115.622C38.5598 138.744 79.1731 137.935 106.793 115.023L57.7229 66.5781Z" fill="white"/>
<path fill-rule="evenodd" clip-rule="evenodd" d="M94.2081 12.6844C71.234 -5.72776 37.6731 -4.06249 16.6377 17.4669C-4.39774 38.9963 -5.45145 72.7561 13.2774 95.5129L94.2081 12.6844Z" fill="#1EB0CD"/>
</g>
<defs>
<clipPath id="clip0_778_6612">
<rect width="528.236" height="133" fill="white"/>
</clipPath>
</defs>
</svg>
