<svg width="278" height="95" viewBox="0 0 278 95" fill="none" xmlns="http://www.w3.org/2000/svg">
<g clip-path="url(#clip0_766_6324)">
<path d="M3.87013 75.9674V81.5252C3.87013 84.5239 3.78656 87.4966 3.65155 89.9977H3.73512C4.73159 87.8004 5.97234 85.3317 7.07809 83.3283L11.0832 75.9674H15.3969V94.6895H11.5268V89.164C11.5268 86.2752 11.5847 83.716 11.829 81.2732H11.7454C10.8904 83.4963 9.67532 85.9715 8.56957 87.9361L4.78302 94.683H0V75.9609H3.87013V75.9674Z" fill="white"/>
<path d="M22.7449 75.9668V83.1596H29.6815V75.9668H33.8795V94.6889H29.6815V86.8562H22.7449V94.6889H18.5469V75.9668H22.7449Z" fill="white"/>
<path d="M40.6816 79.529H35.6543V75.9746H49.9648V79.529H44.8796V94.6967H40.6816V79.529Z" fill="white"/>
<path d="M62.7776 86.7722H55.9246V91.2185H63.5812V94.6889H51.7266V75.9668H63.1955V79.4372H55.9246V83.3277H62.7776V86.7722Z" fill="white"/>
<path d="M66.043 76.2198C67.3416 75.9936 69.1674 75.832 71.7324 75.832C74.2975 75.832 76.1812 76.3361 77.4219 77.3314C78.637 78.2749 79.4148 79.8324 79.4148 81.6613C79.4148 83.4902 78.8363 85.08 77.7048 86.1075C76.2647 87.4388 74.1368 88.0786 71.6553 88.0786C71.1024 88.0786 70.6074 88.0528 70.2152 87.9688V94.6899H66.043V76.2198ZM70.2152 84.7181C70.5753 84.8021 70.9867 84.8279 71.6232 84.8279C73.8604 84.8279 75.2426 83.6905 75.2426 81.797C75.2426 80.078 74.0532 79.0504 71.9253 79.0504C71.096 79.0504 70.5174 79.1021 70.2152 79.1861V84.7116V84.7181Z" fill="white"/>
<path d="M85.5808 75.9668V83.1596H92.5175V75.9668H96.7155V94.6889H92.5175V86.8562H85.5808V94.6889H81.3828V75.9668H85.5808Z" fill="white"/>
<path d="M110.922 86.7722H104.069V91.2185H111.726V94.6889H99.8711V75.9668H111.34V79.4372H104.069V83.3277H110.922V86.7722Z" fill="white"/>
<path d="M117.93 79.529H112.902V75.9746H127.213V79.529H122.128V94.6967H117.93V79.529Z" fill="white"/>
<path d="M133.874 83.916V86.7208H126.635V83.916H133.874Z" fill="white"/>
<path d="M139.935 89.8886L138.611 94.6967H134.271L139.935 75.9746H145.464L151.269 94.6967H146.711L145.271 89.8886H139.942H139.935ZM144.66 86.7219L143.497 82.7474C143.163 81.6358 142.835 80.2464 142.558 79.1348H142.507C142.23 80.2464 141.954 81.6617 141.645 82.7474L140.54 86.7219H144.654H144.66Z" fill="white"/>
<path d="M164.385 75.9668V79.4372H157.339V94.6889H153.141V75.9668H164.391H164.385Z" fill="white"/>
<path d="M177.198 86.7722H170.344V91.2185H178.001V94.6889H166.146V75.9668H177.615V79.4372H170.351V83.3277H177.204V86.7722H177.198Z" fill="white"/>
<path d="M184.673 75.9668V83.1596H191.609V75.9668H195.807V94.6889H191.609V86.8562H184.673V94.6889H180.475V75.9668H184.673Z" fill="white"/>
<path d="M202.609 79.529H197.582V75.9746H211.893V79.529H206.807V94.6967H202.609V79.529Z" fill="white"/>
<path d="M226.961 94.1912C226.215 94.5531 224.447 94.9991 222.21 94.9991C215.768 94.9991 212.451 90.947 212.451 85.6089C212.451 79.2174 216.983 75.6953 222.622 75.6953C224.807 75.6953 226.466 76.1154 227.212 76.529L226.331 79.8637C225.502 79.5018 224.312 79.1657 222.795 79.1657C219.484 79.1657 216.881 81.195 216.881 85.3633C216.881 89.1116 219.092 91.4705 222.821 91.4705C224.119 91.4705 225.502 91.2184 226.357 90.863L226.961 94.1912Z" fill="white"/>
<path d="M233.48 79.529H228.453V75.9746H242.77V79.529H237.685V94.6967H233.487V79.529H233.48Z" fill="white"/>
<path d="M244.512 76.2198C245.617 76.0259 247.829 75.832 249.95 75.832C252.522 75.832 254.097 76.0841 255.479 76.8919C256.778 77.5834 257.691 78.863 257.691 80.582C257.691 82.3011 256.72 83.7487 254.624 84.5565V84.6147C256.752 85.1705 258.327 86.812 258.327 89.1967C258.327 90.9222 257.556 92.2535 256.392 93.197C255.036 94.2827 252.773 94.8902 249.07 94.8902C247 94.8902 245.45 94.748 244.512 94.6123V76.2262V76.2198ZM248.684 83.3868H250.066C252.303 83.3868 253.461 82.4691 253.461 81.0797C253.461 79.6902 252.381 78.9147 250.478 78.9147C249.539 78.9147 249.012 78.9728 248.684 79.0245V83.3868ZM248.684 91.6912C249.095 91.7494 249.597 91.7494 250.31 91.7494C252.22 91.7494 253.904 90.9997 253.904 89.0286C253.904 87.1674 252.22 86.4177 250.118 86.4177H248.684V91.6912Z" fill="white"/>
<path d="M277.724 85.1387C277.724 91.304 274.047 95.0006 268.576 95.0006C263.105 95.0006 259.82 90.8064 259.82 85.4424C259.82 80.0785 263.414 75.6387 268.885 75.6387C274.356 75.6387 277.724 79.9428 277.724 85.1387ZM264.269 85.3584C264.269 89.055 265.986 91.64 268.801 91.64C271.617 91.64 273.282 88.9193 273.282 85.2809C273.282 81.8945 271.707 79.0057 268.801 79.0057C265.896 79.0057 264.269 81.7264 264.269 85.3649V85.3584Z" fill="white"/>
<path d="M14.5612 67.5794H0V12.8672H14.5612V67.5794Z" fill="#DB812E"/>
<path d="M78.7213 67.5794H61.4343L35.1148 27.1107V67.5794H22.1094V12.8672H39.6278L65.478 53.8852V12.8672H78.7148V67.5794H78.7213Z" fill="#DB812E"/>
<path d="M142.765 50.5564C142.765 55.3452 141.183 59.3778 138.014 62.6608C134.851 65.9438 130.826 67.5788 125.947 67.5788H87.4064V57.7945H119.178C121.305 57.7945 123.099 57.2969 124.552 56.3016C126.211 55.1448 127.04 53.5744 127.04 51.5775C127.04 46.905 123.768 44.572 117.23 44.572H101.19C96.5675 44.572 92.5173 43.1438 89.0458 40.2809C85.5678 37.4179 83.832 33.773 83.832 29.3526C83.832 24.4605 85.5292 20.4924 88.9301 17.4421C92.3309 14.3982 96.8053 12.873 102.36 12.873H139.19V22.2632H106.719C105.266 22.2632 103.8 22.8707 102.321 24.0921C100.843 25.3135 100.103 26.7482 100.103 28.4091C100.103 30.2768 100.817 31.8472 102.244 33.1139C103.671 34.387 105.401 35.0203 107.419 35.0203H125.092C130.595 35.0203 134.915 36.4421 138.059 39.2792C141.196 42.1162 142.771 45.8775 142.771 50.5628L142.765 50.5564Z" fill="#DB812E"/>
<path d="M278 67.5794H251.449C247.347 67.5794 243.4 66.6424 239.613 64.7682C235.512 62.739 232.381 59.5077 230.234 55.0743C228.08 50.6475 227 45.7747 227 40.456C227 35.1373 228.035 30.426 230.112 26.1543C232.394 21.5206 235.563 18.1342 239.613 15.9951C241.844 14.8512 243.985 14.0434 246.036 13.5716C248.086 13.0998 250.433 12.8672 253.082 12.8672H277.685V22.6515H254.946C252.921 22.6515 251.217 22.923 249.848 23.4594C248.472 23.9958 247.109 24.9587 245.759 26.3417C244.409 27.7247 243.477 29.0689 242.956 30.3743C242.436 31.6798 242.178 33.3083 242.178 35.2536H277.993V45.0379H242.178C242.178 46.8151 242.41 48.3662 242.879 49.6975C243.348 51.0288 244.197 52.3988 245.418 53.8077C246.646 55.2165 247.919 56.2893 249.25 57.0196C250.581 57.7498 252.156 58.1182 253.982 58.1182H277.993V67.5924L278 67.5794Z" fill="#DB812E"/>
<path d="M220.051 24.9005C217.505 19.7434 214.053 16.3311 209.694 14.6638C206.474 13.4682 203.233 12.8672 199.961 12.8672H172.24V17.1842L184.931 29.9801V22.658H200.115C204.011 22.658 206.917 24.6937 208.839 28.7651C210.344 32.0029 211.096 36.1519 211.096 41.2121C211.096 45.807 210.395 49.6134 208.994 52.6379C207.284 56.341 204.661 58.1958 201.131 58.1958L184.937 58.1182V44.1784H172.247V67.5924H201.6C203.986 67.5924 206.139 67.4114 208.061 67.043C212.992 66.0543 216.862 62.9522 219.665 57.7434C222.263 52.9998 223.561 47.4226 223.561 41.0182C223.561 35.0274 222.391 29.657 220.058 24.9199L220.051 24.9005Z" fill="#DB812E"/>
<path d="M147.791 31.1504V67.58H162.352V45.7364L147.791 31.1504Z" fill="#DB812E"/>
<path fill-rule="evenodd" clip-rule="evenodd" d="M186.396 38.9177H163.664L147.791 23.0262V0L186.396 38.9177Z" fill="#00ACEC"/>
</g>
<defs>
<clipPath id="clip0_766_6324">
<rect width="278" height="95" fill="white"/>
</clipPath>
</defs>
</svg>
