<svg width="187" height="57" viewBox="0 0 187 57" fill="none" xmlns="http://www.w3.org/2000/svg">
<path d="M1.26752 33.5151C0.962871 33.1126 0.810547 32.6094 0.810547 32.0057C0.810547 31.1336 1.2506 30.3956 2.1307 29.7922C2.6046 29.4902 3.09543 29.3392 3.60318 29.3392C4.31403 29.3392 4.99105 29.658 5.63418 30.2951C6.64969 31.3348 7.69904 32.1064 8.78226 32.6094C9.8993 33.1126 11.2364 33.364 12.7935 33.364C15.4338 33.2635 16.754 32.274 16.754 30.3956C16.754 29.4231 16.2969 28.6852 15.383 28.1821C14.5029 27.6789 13.1151 27.1759 11.2194 26.6727C9.25615 26.136 7.64827 25.5996 6.39581 25.0629C5.17721 24.5262 4.11092 23.7212 3.19697 22.6479C2.31687 21.5411 1.87682 20.0653 1.87682 18.2206C1.87682 16.6106 2.33379 15.2187 3.24775 14.0448C4.19555 12.8373 5.41415 11.915 6.90356 11.2777C8.42681 10.6069 10.0347 10.2715 11.7272 10.2715C13.4536 10.2715 15.1799 10.5901 16.9063 11.2274C18.6326 11.8646 19.9865 12.8038 20.9682 14.0448C21.4083 14.5814 21.6283 15.1851 21.6283 15.856C21.6283 16.6274 21.3067 17.2646 20.6636 17.7678C20.1897 18.1367 19.6482 18.3211 19.0389 18.3211C18.2941 18.3211 17.6848 18.0864 17.2108 17.6168C16.6016 16.8789 15.8061 16.2919 14.8245 15.856C13.8767 15.42 12.7935 15.2019 11.5749 15.2019C9.00226 15.2019 7.71598 16.1243 7.71598 17.9691C7.71598 18.7068 7.95292 19.3106 8.42681 19.7802C8.90072 20.2162 9.49309 20.5684 10.2039 20.8367C10.9487 21.0715 11.9811 21.3734 13.3012 21.7423C15.1291 22.2454 16.6524 22.7654 17.8709 23.3021C19.0895 23.8387 20.122 24.6604 20.9682 25.7672C21.8146 26.8739 22.2376 28.333 22.2376 30.1443C22.2376 31.7878 21.7469 33.2299 20.7652 34.471C19.7835 35.6785 18.5141 36.6007 16.957 37.2381C15.4338 37.8752 13.8597 38.194 12.2349 38.194C10.0008 38.194 7.91905 37.8249 5.9896 37.087C4.06017 36.3491 2.48612 35.1585 1.26752 33.5151Z" fill="#1A53C6"/>
<path d="M50.7333 10.2715C51.6137 10.2715 52.3414 10.5566 52.9168 11.1268C53.4922 11.6969 53.7799 12.4348 53.7799 13.3404V34.6218C53.7799 35.4939 53.4922 36.2319 52.9168 36.8356C52.3414 37.4058 51.6137 37.6908 50.7333 37.6908C49.8534 37.6908 49.1257 37.4058 48.5503 36.8356C48.0086 36.2653 47.7208 35.5443 47.6868 34.6722C46.8406 35.6449 45.6898 36.4832 44.2341 37.1877C42.8125 37.8585 41.3062 38.194 39.7152 38.194C37.3796 38.194 35.264 37.607 33.3682 36.4331C31.4729 35.2256 29.9664 33.5653 28.8494 31.4523C27.7662 29.3392 27.2246 26.941 27.2246 24.2579C27.2246 21.5747 27.7662 19.1764 28.8494 17.0635C29.9324 14.9168 31.405 13.2566 33.2666 12.0827C35.1624 10.8752 37.2441 10.2715 39.512 10.2715C41.137 10.2715 42.6602 10.5733 44.0818 11.1771C45.5036 11.7473 46.7052 12.4851 47.6868 13.3907V13.3404C47.6868 12.4684 47.9745 11.7473 48.5503 11.1771C49.1257 10.5733 49.8534 10.2715 50.7333 10.2715ZM40.4767 32.6597C42.677 32.6597 44.4712 31.8715 45.8589 30.2951C47.2469 28.6852 47.9408 26.6727 47.9408 24.2579C47.9408 21.8429 47.2469 19.8305 45.8589 18.2206C44.4712 16.6106 42.677 15.8057 40.4767 15.8057C38.3105 15.8057 36.5334 16.6106 35.1455 18.2206C33.7575 19.8305 33.0637 21.8429 33.0637 24.2579C33.0637 26.6727 33.7407 28.6852 35.0948 30.2951C36.4826 31.8715 38.2768 32.6597 40.4767 32.6597Z" fill="#1A53C6"/>
<path d="M67.9994 34.6218C67.9994 35.4939 67.6947 36.2318 67.0856 36.8356C66.5098 37.4059 65.7822 37.6907 64.9021 37.6907C64.0559 37.6907 63.345 37.4059 62.7694 36.8356C62.194 36.2318 61.9062 35.4939 61.9062 34.6218V3.52988C61.9062 2.65783 62.194 1.93672 62.7694 1.36653C63.3788 0.762801 64.1235 0.460938 65.0037 0.460938C65.8499 0.460938 66.5608 0.762801 67.1362 1.36653C67.7116 1.93672 67.9994 2.65783 67.9994 3.52988V34.6218Z" fill="#1A53C6"/>
<path d="M99.9756 23.6039C99.9416 24.4087 99.62 25.0629 99.0109 25.566C98.4014 26.0689 97.6905 26.3206 96.8782 26.3206H80.1225C80.5288 28.2994 81.4595 29.8593 82.9152 30.9994C84.3705 32.1064 86.0123 32.6597 87.8402 32.6597C89.2281 32.6597 90.3112 32.5423 91.09 32.3076C91.8683 32.0393 92.4778 31.7709 92.9178 31.5026C93.3916 31.2007 93.7133 30.9994 93.8825 30.8988C94.4918 30.5969 95.0672 30.4461 95.6088 30.4461C96.3197 30.4461 96.9291 30.6976 97.4367 31.2007C97.9445 31.7039 98.1984 32.2907 98.1984 32.9615C98.1984 33.8672 97.7244 34.6889 96.7767 35.4268C95.8289 36.1982 94.5595 36.8523 92.9685 37.389C91.3777 37.9256 89.7697 38.194 88.1448 38.194C85.3016 38.194 82.8136 37.607 80.681 36.4331C78.5824 35.2591 76.9575 33.6493 75.8067 31.6032C74.6555 29.5238 74.0801 27.1927 74.0801 24.61C74.0801 21.7255 74.6895 19.1932 75.908 17.0131C77.1267 14.833 78.7346 13.1727 80.7317 12.0323C82.7288 10.8584 84.8614 10.2715 87.1294 10.2715C89.3634 10.2715 91.4621 10.8752 93.4256 12.0827C95.4227 13.2901 97.0136 14.9168 98.1984 16.9628C99.3831 19.0088 99.9756 21.2224 99.9756 23.6039ZM87.1294 15.8057C83.2029 15.8057 80.8841 17.6336 80.1732 21.2895H93.4764V20.9373C93.3409 19.5287 92.647 18.3211 91.3945 17.315C90.1421 16.3087 88.7204 15.8057 87.1294 15.8057Z" fill="#1A53C6"/>
<path d="M120.137 10.2715C122.473 10.2715 124.588 10.8752 126.484 12.0827C128.38 13.2566 129.869 14.9001 130.952 17.0132C132.069 19.1261 132.628 21.5244 132.628 24.2075C132.628 26.8909 132.086 29.3056 131.003 31.4523C129.92 33.5653 128.43 35.2256 126.535 36.4331C124.673 37.607 122.608 38.194 120.34 38.194C118.715 38.194 117.175 37.8752 115.72 37.2381C114.298 36.5673 113.113 35.7622 112.165 34.8231V35.1249C112.165 35.9971 111.878 36.735 111.302 37.3388C110.727 37.9088 109.999 38.194 109.119 38.194C108.239 38.194 107.511 37.9088 106.935 37.3388C106.36 36.7685 106.072 36.0306 106.072 35.1249V3.52988C106.072 2.65783 106.36 1.93672 106.935 1.36653C107.511 0.762801 108.239 0.460938 109.119 0.460938C109.999 0.460938 110.727 0.762801 111.302 1.36653C111.878 1.93672 112.165 2.65783 112.165 3.52988V14.0448C112.978 13.0386 114.112 12.1666 115.567 11.4287C117.023 10.6572 118.546 10.2715 120.137 10.2715ZM119.375 32.6597C121.542 32.6597 123.319 31.8547 124.707 30.2448C126.095 28.6349 126.788 26.6225 126.788 24.2075C126.788 21.7927 126.095 19.797 124.707 18.2206C123.353 16.6107 121.576 15.8057 119.375 15.8057C117.175 15.8057 115.381 16.6107 113.993 18.2206C112.605 19.797 111.911 21.7927 111.911 24.2075C111.911 26.6225 112.605 28.6349 113.993 30.2448C115.381 31.8547 117.175 32.6597 119.375 32.6597Z" fill="#1A53C6"/>
<path d="M164.823 24.2579C164.823 26.941 164.213 29.356 162.995 31.5026C161.776 33.6157 160.101 35.2591 157.968 36.4331C155.869 37.607 153.551 38.194 151.011 38.194C148.439 38.194 146.104 37.607 144.005 36.4331C141.906 35.2591 140.248 33.6157 139.029 31.5026C137.81 29.356 137.201 26.941 137.201 24.2579C137.201 21.5747 137.81 19.1764 139.029 17.0635C140.248 14.9168 141.906 13.2566 144.005 12.0827C146.104 10.8752 148.439 10.2715 151.011 10.2715C153.551 10.2715 155.869 10.8752 157.968 12.0827C160.101 13.2566 161.776 14.9168 162.995 17.0635C164.213 19.1764 164.823 21.5747 164.823 24.2579ZM158.73 24.2579C158.73 22.6143 158.375 21.1554 157.664 19.8807C156.986 18.5727 156.056 17.5665 154.87 16.8622C153.72 16.1578 152.434 15.8057 151.011 15.8057C149.59 15.8057 148.287 16.1578 147.102 16.8622C145.951 17.5665 145.02 18.5727 144.31 19.8807C143.632 21.1554 143.294 22.6143 143.294 24.2579C143.294 25.9014 143.632 27.3605 144.31 28.6348C145.02 29.9094 145.951 30.8988 147.102 31.6032C148.287 32.3076 149.59 32.6597 151.011 32.6597C152.434 32.6597 153.72 32.3076 154.87 31.6032C156.056 30.8988 156.986 29.9094 157.664 28.6348C158.375 27.3605 158.73 25.9014 158.73 24.2579Z" fill="#1A53C6"/>
<path d="M184.029 32.007C184.504 32.007 184.926 32.2419 185.299 32.7115C185.705 33.1475 185.908 33.7344 185.908 34.4723C185.908 35.3779 185.4 36.1492 184.384 36.7865C183.404 37.3903 182.286 37.6921 181.033 37.6921C178.935 37.6921 177.158 37.2561 175.703 36.384C174.28 35.4786 173.569 33.5836 173.569 30.6989V16.8133H171.234C170.421 16.8133 169.744 16.545 169.203 16.0083C168.662 15.4716 168.391 14.8008 168.391 13.9958C168.391 13.2244 168.662 12.5872 169.203 12.084C169.744 11.5474 170.421 11.2791 171.234 11.2791H173.569V8.05917C173.569 7.18715 173.858 6.46602 174.432 5.89583C175.042 5.29212 175.787 4.99023 176.667 4.99023C177.512 4.99023 178.224 5.29212 178.799 5.89583C179.375 6.46602 179.662 7.18715 179.662 8.05917V11.2791H183.268C184.079 11.2791 184.757 11.5474 185.299 12.084C185.841 12.6207 186.111 13.2915 186.111 14.0965C186.111 14.8679 185.841 15.5219 185.299 16.0586C184.757 16.5616 184.079 16.8133 183.268 16.8133H179.662V30.4474C179.662 31.1519 179.849 31.6716 180.222 32.007C180.593 32.309 181.101 32.4598 181.744 32.4598C182.015 32.4598 182.388 32.3927 182.862 32.2585C183.268 32.0908 183.657 32.007 184.029 32.007Z" fill="#1A53C6"/>
<path d="M164.941 45.6777C167.743 45.6777 170.015 47.9289 170.015 50.7059C170.015 53.4828 167.743 55.734 164.941 55.734C162.137 55.734 159.865 53.4828 159.865 50.7059C159.865 47.9289 162.137 45.6777 164.941 45.6777Z" fill="#FDB954"/>
<path d="M150.757 45.6777C153.561 45.6777 155.833 47.9289 155.833 50.7059C155.833 53.4828 153.561 55.734 150.757 55.734C147.955 55.734 145.684 53.4828 145.684 50.7059C145.684 47.9289 147.955 45.6777 150.757 45.6777Z" fill="#FDC571"/>
<path d="M135.795 45.6777C138.598 45.6777 140.87 47.9289 140.87 50.7059C140.87 53.4828 138.598 55.734 135.795 55.734C132.993 55.734 130.721 53.4828 130.721 50.7059C130.721 47.9289 132.993 45.6777 135.795 45.6777Z" fill="#FED08C"/>
</svg>
