<svg width="609" height="114" viewBox="0 0 609 114" fill="none" xmlns="http://www.w3.org/2000/svg">
<g clip-path="url(#clip0_771_6353)">
<path fill-rule="evenodd" clip-rule="evenodd" d="M486.199 84.3396C488.351 84.7486 492.793 89.9301 502.887 90.7481C540.303 94.1569 549.186 41.1162 519.71 25.9811C514.058 23.1178 506.925 22.7088 499.926 23.6633C492.254 24.754 488.621 28.8446 484.314 31.5716L481.757 24.8903H470.72C469.913 28.9809 470.45 108.201 470.45 113.928H486.199V84.3396ZM499.522 38.3892C523.749 32.526 529.536 70.9772 507.732 75.8858C496.023 78.4765 487.544 71.2499 485.795 61.4326C483.911 51.2062 487.948 41.2525 499.522 38.3892Z" fill="white"/>
<path fill-rule="evenodd" clip-rule="evenodd" d="M231.151 62.6593C237.476 28.1625 204.368 16.2999 185.392 26.3899C159.147 40.2978 166.414 75.6127 181.084 84.8847C196.024 94.4293 213.116 92.1113 228.729 85.021L225.499 73.1584C223.076 73.1584 216.75 75.6128 213.655 76.2946C202.484 78.6125 185.256 76.2946 184.315 62.7958H231.151V62.6593ZM184.583 50.6604C184.179 46.9789 187.141 43.0248 189.429 40.7068C197.1 32.9348 216.213 37.5708 215.943 50.6604H184.449H184.583Z" fill="white"/>
<path fill-rule="evenodd" clip-rule="evenodd" d="M458.475 61.2966C461.301 40.4348 447.977 25.2998 429.672 23.5273C409.215 21.3456 394.41 33.8899 392.526 52.5701C390.507 73.5682 402.62 89.1123 421.193 90.7484C442.054 92.6574 455.649 81.8856 458.475 61.2966ZM419.982 39.0712C444.074 30.7539 451.88 68.6595 431.422 75.2045C419.712 79.0223 410.965 71.932 408.945 62.7964C406.658 52.8428 409.484 42.6165 420.116 39.0712H419.982Z" fill="white"/>
<path fill-rule="evenodd" clip-rule="evenodd" d="M288.085 40.4345C288.085 40.4345 288.355 39.8892 288.489 39.6165L291.316 28.4357C284.182 25.7086 280.953 24.0724 272.473 23.3906C264.668 22.7089 258.745 22.8452 251.477 25.4359C238.825 30.0719 236.269 47.6613 245.959 55.9786C256.591 65.1142 277.991 62.1144 278.529 70.9773C278.933 77.6585 266.417 77.3858 260.629 76.4313C252.016 75.0678 245.152 71.1136 242.998 70.841L238.961 82.8399C246.229 89.3847 267.09 92.248 278.261 89.6574C296.161 85.4305 296.026 68.114 290.777 60.0692C283.779 49.2974 263.187 50.3881 257.264 45.4796C254.169 42.8888 255.515 39.7528 258.207 38.253C261.033 36.6167 264.936 36.6167 268.301 36.6167C276.511 36.6167 280.953 38.9347 287.817 40.8436L288.221 40.1618L288.085 40.4345Z" fill="white"/>
<path fill-rule="evenodd" clip-rule="evenodd" d="M15.8114 9.48047C14.7347 20.3886 15.5422 24.6154 7.73603 24.8882C0.0644494 25.0245 0.0644531 24.6154 0.0644531 25.1609C0.0644531 25.7062 0.0644531 28.0242 0.0644531 29.115C0.0644531 31.4784 0.0644531 35.0691 0.0644531 39.8868H12.985C12.985 57.2035 11.5045 76.8381 18.234 82.9739C26.0401 93.473 46.0939 92.1095 53.9001 86.2463C51.612 76.8381 51.612 77.1107 50.67 73.9746C47.0361 74.1111 32.7696 79.9742 29.6741 69.3388C28.3282 64.8391 28.8666 46.0226 29.0011 39.8868L51.4775 39.6141C51.4775 31.433 51.4775 31.433 51.4775 24.7517C35.7306 24.7517 35.8651 24.7517 29.1356 24.7517V9.48047C19.9836 9.48047 19.8491 9.48047 15.946 9.48047" fill="white"/>
<path fill-rule="evenodd" clip-rule="evenodd" d="M133.305 73.704C132.901 88.9754 148.917 94.9748 164.934 86.7937C162.646 78.0672 162.646 78.3399 161.837 74.6584C153.763 74.7948 148.244 75.8856 148.11 65.932C148.11 55.7056 148.513 3.48301 148.11 0.0742188H133.17C132.497 4.71017 133.17 69.7498 133.17 73.704" fill="white"/>
<path fill-rule="evenodd" clip-rule="evenodd" d="M121.998 62.6593C128.323 28.1625 95.2144 16.2999 76.2372 26.3899C49.9924 40.2978 57.2601 75.6127 71.9304 84.8847C86.8698 94.4293 103.963 92.1113 119.575 85.021L116.345 73.1584C113.922 73.1584 107.596 75.6128 104.501 76.2946C93.3301 78.6125 76.1027 76.2946 75.1606 62.7958H121.998V62.6593ZM75.4298 50.6604C75.0259 46.9789 77.9869 43.0248 80.2749 40.7068C87.9465 32.9348 107.058 37.5708 106.789 50.6604H75.2951H75.4298Z" fill="white"/>
<path fill-rule="evenodd" clip-rule="evenodd" d="M608.137 62.6593C614.464 28.1625 581.354 16.2999 562.378 26.3899C536.133 40.2978 543.401 75.6127 558.071 84.8847C573.011 94.4293 590.103 92.1113 605.715 85.021L602.485 73.1584C600.063 73.1584 593.737 75.6128 590.641 76.2946C579.47 78.6125 562.242 76.2946 561.301 62.7958H608.137V62.6593ZM561.57 50.6604C561.166 46.9789 564.128 43.0248 566.415 40.7068C574.086 32.9348 593.199 37.5708 592.929 50.6604H561.436H561.57Z" fill="white"/>
<path fill-rule="evenodd" clip-rule="evenodd" d="M311.502 29.3914C309.887 31.4367 308.271 33.6182 306.656 37.027C304.907 40.4359 303.157 45.3445 302.887 51.7531C302.619 58.1616 303.696 66.07 306.656 71.933C309.617 77.7961 314.328 81.7504 318.768 84.7501C323.21 87.7499 327.383 89.6587 332.631 90.6132C338.016 91.4314 344.611 91.295 349.859 89.9314C355.108 88.5679 358.877 85.9773 361.973 83.2503C365.068 80.5233 367.625 77.3871 370.182 75.0692C372.74 72.7512 375.566 71.115 377.854 70.4332C380.276 69.7515 382.295 70.0242 383.911 70.4332C385.39 70.8423 386.467 71.524 387.005 71.933L387.544 72.2058L387.14 70.706C386.737 69.206 385.929 66.07 384.449 63.4794C383.102 60.8886 381.084 58.9797 378.796 57.7526C376.373 56.5254 373.547 56.1163 370.452 56.5254C367.221 56.9344 363.587 58.1616 360.358 60.7522C356.993 63.3429 354.031 67.1607 351.205 69.6152C348.514 72.2058 346.09 73.433 342.187 73.7057C338.42 73.9783 333.17 73.433 329.132 71.524C325.095 69.615 322.269 66.2064 320.654 62.1157C319.038 58.0252 318.634 52.9802 319.711 48.7533C320.788 44.3901 323.21 40.845 326.44 38.2542C329.537 35.6637 333.304 34.1637 337.207 33.7547C340.976 33.482 344.879 34.4364 347.571 35.5272C350.263 36.6181 351.743 37.9815 353.09 39.4815C354.435 40.9813 355.512 42.7538 356.05 43.572L356.589 44.3901L357.665 42.7538C358.742 41.1177 360.896 37.9815 362.645 34.7092C364.261 31.4367 365.472 28.0279 366.01 24.2101C366.683 20.3923 366.683 15.8926 366.683 13.302C366.683 10.5749 366.279 9.62046 366.279 9.21141V8.66602C366.279 8.66602 365.92 8.71148 365.202 8.80238C364.261 8.93873 362.51 9.34776 360.358 10.4386C358.204 11.5294 355.646 13.4383 354.167 14.8018C352.551 16.1653 352.013 17.2562 351.609 17.6653C351.34 18.2106 351.34 18.2106 351.34 18.2106C351.34 18.2106 351.34 18.2106 349.993 17.6653C348.648 17.1198 346.09 16.029 342.995 15.62C339.899 15.211 336.4 15.62 333.708 16.029C331.016 16.5743 328.998 17.3925 328.056 17.8016L327.113 18.2106L324.825 16.5743C322.403 14.9382 317.693 11.5294 315.135 10.0295C312.577 8.39331 312.175 8.52965 311.77 9.21141C311.366 9.89316 311.098 11.1204 311.098 13.5747C311.098 16.029 311.098 19.7105 311.366 22.5738C311.366 25.4373 311.636 27.3461 311.636 29.3914" fill="#FF7A01"/>
</g>
<defs>
<clipPath id="clip0_771_6353">
<rect width="609" height="114" fill="white"/>
</clipPath>
</defs>
</svg>
