<svg width="486" height="115" viewBox="0 0 486 115" fill="none" xmlns="http://www.w3.org/2000/svg">
<g clip-path="url(#clip0_771_6391)">
<mask id="mask0_771_6391" style="mask-type:luminance" maskUnits="userSpaceOnUse" x="0" y="0" width="486" height="115">
<path d="M486 0H0V115H486V0Z" fill="white"/>
</mask>
<g mask="url(#mask0_771_6391)">
<mask id="mask1_771_6391" style="mask-type:luminance" maskUnits="userSpaceOnUse" x="0" y="0" width="114" height="115">
<path d="M113.551 57.2139C113.551 25.6156 88.1321 0 56.7757 0C25.4193 0 0 25.6156 0 57.2139C0 88.8123 25.4193 114.428 56.7757 114.428C88.1321 114.428 113.551 88.8123 113.551 57.2139Z" fill="white"/>
</mask>
<g mask="url(#mask1_771_6391)">
<path d="M56.7754 0C88.1317 0 113.552 25.6155 113.552 57.2139C113.552 88.8123 88.1317 114.428 56.7754 114.428C50.5998 114.428 44.655 113.433 39.0889 111.596C39.3479 111.244 39.5835 110.861 39.792 110.445L54.0928 81.1738L64.3447 96.3125C65.5932 98.1754 67.2877 98.7867 69.4258 98.1465C71.5644 97.5057 72.6581 96.0775 72.707 93.8613L73.999 35.0527C74.041 33.1421 73.2164 31.7469 71.5273 30.8682C69.8378 29.9896 68.2228 30.1451 66.6826 31.334L19.9238 66.7637C18.1511 68.024 17.601 69.6929 18.2744 71.7725C18.948 73.8516 20.3865 74.9166 22.5889 74.9658L41.7002 75.3926L27.5205 104.322C27.2581 104.845 27.0635 105.37 26.9346 105.896C10.7693 95.8115 0 77.7805 0 57.2139C3.47792e-05 25.6156 25.4192 0.000168302 56.7754 0Z" fill="white"/>
</g>
<path d="M175.705 82.3885C173.113 82.8765 170.57 83.0842 168.074 83.011C165.604 82.9624 163.387 82.5104 161.425 81.6562C159.463 80.7774 157.973 79.3979 156.955 77.5185C156.059 75.8095 155.587 74.0645 155.538 72.2822C155.49 70.5 155.466 68.4861 155.466 66.2405V31.8572H164.186V65.7278C164.186 67.3144 164.198 68.7058 164.223 69.9021C164.271 71.0985 164.525 72.0746 164.986 72.8315C165.858 74.2962 167.251 75.1138 169.165 75.2848C171.078 75.4559 173.259 75.3581 175.705 74.9919V82.3885ZM148.344 49.7628V42.8422H175.705V49.7628H148.344ZM197.733 101.063C195.553 101.063 193.458 100.722 191.447 100.038C189.461 99.3542 187.668 98.3655 186.069 97.0719C184.471 95.8023 183.163 94.2644 182.145 92.4582L190.212 88.4303C190.963 89.8704 192.017 90.9323 193.373 91.616C194.754 92.3237 196.219 92.6779 197.77 92.6779C199.587 92.6779 201.21 92.3483 202.639 91.6892C204.068 91.0547 205.171 90.1027 205.946 88.8331C206.745 87.5881 207.12 86.0256 207.072 84.1461V72.9047H208.162V42.8422H215.829V84.2926C215.829 85.2933 215.781 86.2453 215.684 87.1487C215.611 88.0762 215.478 88.9796 215.284 89.8584C214.703 92.4215 213.588 94.5207 211.941 96.1565C210.294 97.8162 208.247 99.0492 205.8 99.8548C203.378 100.66 200.689 101.063 197.733 101.063ZM196.97 83.487C193.361 83.487 190.212 82.5716 187.523 80.7407C184.834 78.9099 182.751 76.42 181.273 73.2709C179.795 70.1218 179.057 66.57 179.057 62.6154C179.057 58.6121 179.795 55.0479 181.273 51.9232C182.775 48.7742 184.895 46.2964 187.632 44.49C190.369 42.6592 193.591 41.7437 197.297 41.7437C201.028 41.7437 204.153 42.6592 206.672 44.49C209.216 46.2964 211.142 48.7742 212.45 51.9232C213.758 55.0723 214.412 58.6362 214.412 62.6154C214.412 66.5454 213.758 70.0972 212.45 73.2709C211.142 76.42 209.191 78.9099 206.6 80.7407C204.008 82.5716 200.798 83.487 196.97 83.487ZM198.315 75.5778C200.665 75.5778 202.554 75.0405 203.983 73.9666C205.437 72.8681 206.491 71.3422 207.145 69.3895C207.823 67.4368 208.162 65.1786 208.162 62.6154C208.162 60.0276 207.823 57.7699 207.145 55.8412C206.491 53.8884 205.461 52.3748 204.056 51.3008C202.651 50.2022 200.834 49.653 198.606 49.653C196.256 49.653 194.318 50.2389 192.792 51.4106C191.266 52.5579 190.139 54.1203 189.412 56.0976C188.686 58.0503 188.322 60.2233 188.322 62.6154C188.322 65.0321 188.674 67.2291 189.376 69.2064C190.103 71.1591 191.205 72.7096 192.683 73.8568C194.161 75.0039 196.038 75.5778 198.315 75.5778ZM253.612 83.487C249.785 83.487 246.575 82.5716 243.983 80.7407C241.391 78.9099 239.441 76.42 238.133 73.2709C236.825 70.0972 236.171 66.5454 236.171 62.6154C236.171 58.6362 236.825 55.0723 238.133 51.9232C239.441 48.7742 241.355 46.2964 243.874 44.49C246.418 42.6592 249.554 41.7437 253.285 41.7437C256.991 41.7437 260.201 42.6592 262.914 44.49C265.651 46.2964 267.771 48.7742 269.273 51.9232C270.775 55.0479 271.526 58.6121 271.526 62.6154C271.526 66.57 270.787 70.1218 269.309 73.2709C267.832 76.42 265.749 78.9099 263.06 80.7407C260.371 82.5716 257.221 83.487 253.612 83.487ZM234.681 82.3885V29.6602H243.511V54.6329H242.421V82.3885H234.681ZM252.268 75.5778C254.545 75.5778 256.422 75.0039 257.9 73.8568C259.378 72.7096 260.468 71.1591 261.17 69.2064C261.897 67.2291 262.26 65.0321 262.26 62.6154C262.26 60.2233 261.897 58.0503 261.17 56.0976C260.443 54.1203 259.317 52.5579 257.791 51.4106C256.265 50.2389 254.327 49.653 251.977 49.653C249.749 49.653 247.932 50.2022 246.527 51.3008C245.121 52.3748 244.08 53.8884 243.402 55.8412C242.748 57.7699 242.421 60.0276 242.421 62.6154C242.421 65.1786 242.748 67.4368 243.402 69.3895C244.08 71.3422 245.134 72.8681 246.563 73.9666C248.016 75.0405 249.918 75.5778 252.268 75.5778ZM293.961 83.487C290.037 83.487 286.609 82.5962 283.678 80.814C280.746 79.0318 278.47 76.5784 276.846 73.454C275.248 70.3049 274.448 66.6919 274.448 62.6154C274.448 58.4657 275.272 54.8282 276.919 51.7035C278.566 48.5789 280.855 46.1378 283.787 44.3802C286.718 42.6225 290.109 41.7437 293.961 41.7437C297.91 41.7437 301.349 42.6347 304.28 44.4168C307.212 46.1988 309.489 48.6643 311.112 51.8134C312.735 54.938 313.546 58.5389 313.546 62.6154C313.546 66.7165 312.722 70.3415 311.075 73.4906C309.452 76.6151 307.175 79.0684 304.244 80.8506C301.313 82.6082 297.885 83.487 293.961 83.487ZM293.961 75.2116C297.449 75.2116 300.041 74.0399 301.737 71.6964C303.433 69.3529 304.28 66.3257 304.28 62.6154C304.28 58.7826 303.42 55.7314 301.701 53.4612C299.981 51.1665 297.401 50.0192 293.961 50.0192C291.611 50.0192 289.673 50.5562 288.147 51.6303C286.645 52.68 285.531 54.1569 284.804 56.061C284.077 57.9404 283.714 60.1254 283.714 62.6154C283.714 66.4481 284.574 69.5114 286.294 71.8062C288.038 74.0765 290.594 75.2116 293.961 75.2116ZM335.978 83.487C332.053 83.487 328.626 82.5962 325.695 80.814C322.763 79.0318 320.487 76.5784 318.863 73.454C317.265 70.3049 316.465 66.6919 316.465 62.6154C316.465 58.4657 317.289 54.8282 318.936 51.7035C320.583 48.5789 322.872 46.1378 325.804 44.3802C328.735 42.6225 332.126 41.7437 335.978 41.7437C339.927 41.7437 343.366 42.6347 346.297 44.4168C349.229 46.1988 351.505 48.6643 353.129 51.8134C354.752 54.938 355.563 58.5389 355.563 62.6154C355.563 66.7165 354.739 70.3415 353.092 73.4906C351.469 76.6151 349.192 79.0684 346.261 80.8506C343.33 82.6082 339.902 83.487 335.978 83.487ZM335.978 75.2116C339.466 75.2116 342.058 74.0399 343.754 71.6964C345.45 69.3529 346.297 66.3257 346.297 62.6154C346.297 58.7826 345.437 55.7314 343.717 53.4612C341.998 51.1665 339.418 50.0192 335.978 50.0192C333.628 50.0192 331.69 50.5562 330.164 51.6303C328.662 52.68 327.548 54.1569 326.821 56.061C326.094 57.9404 325.731 60.1254 325.731 62.6154C325.731 66.4481 326.591 69.5114 328.311 71.8062C330.055 74.0765 332.61 75.2116 335.978 75.2116ZM374.892 83.487C370.047 83.487 366.11 82.3885 363.083 80.1915C360.055 77.9945 358.213 74.9066 357.559 70.9274L366.498 69.536C366.959 71.4887 367.976 73.0266 369.55 74.1497C371.125 75.2728 373.111 75.8341 375.51 75.8341C377.617 75.8341 379.24 75.4193 380.379 74.5891C381.541 73.7349 382.123 72.5752 382.123 71.1105C382.123 70.2071 381.905 69.4873 381.469 68.9501C381.057 68.3888 380.136 67.8516 378.707 67.339C377.278 66.8263 375.085 66.1792 372.13 65.3983C368.836 64.5195 366.219 63.5794 364.282 62.5788C362.344 61.5535 360.951 60.3451 360.103 58.9537C359.255 57.5622 358.831 55.8779 358.831 53.9006C358.831 51.435 359.473 49.2868 360.757 47.456C362.041 45.6251 363.834 44.2215 366.135 43.245C368.436 42.2442 371.149 41.7437 374.274 41.7437C377.326 41.7437 380.027 42.2198 382.377 43.1718C384.751 44.1238 386.665 45.4787 388.118 47.2363C389.572 48.9939 390.468 51.0566 390.807 53.4245L381.868 55.0357C381.65 53.3513 380.887 52.0209 379.579 51.0444C378.296 50.068 376.575 49.5187 374.419 49.3967C372.36 49.2746 370.701 49.5919 369.441 50.3487C368.182 51.0811 367.552 52.1185 367.552 53.4612C367.552 54.2179 367.806 54.8648 368.315 55.4018C368.824 55.9389 369.841 56.4759 371.367 57.013C372.918 57.5502 375.219 58.2093 378.271 58.9903C381.396 59.7959 383.891 60.7233 385.756 61.7732C387.646 62.7985 389.002 64.0314 389.826 65.4715C390.674 66.9116 391.098 68.6572 391.098 70.7077C391.098 74.6869 389.656 77.8114 386.774 80.0816C383.915 82.3519 379.955 83.487 374.892 83.487ZM419.151 82.3885C416.559 82.8765 414.015 83.0842 411.52 83.011C409.049 82.9624 406.833 82.5104 404.871 81.6562C402.908 80.7774 401.419 79.3979 400.401 77.5185C399.505 75.8095 399.032 74.0645 398.984 72.2822C398.936 70.5 398.911 68.4861 398.911 66.2405V31.8572H407.632V65.7278C407.632 67.3144 407.644 68.7058 407.668 69.9021C407.717 71.0985 407.971 72.0746 408.432 72.8315C409.304 74.2962 410.696 75.1138 412.61 75.2848C414.524 75.4559 416.704 75.3581 419.151 74.9919V82.3885ZM391.789 49.7628V42.8422H419.151V49.7628H391.789ZM440.537 83.487C436.564 83.487 433.076 82.6202 430.072 80.8872C427.068 79.1542 424.718 76.7495 423.022 73.6737C421.351 70.5979 420.515 67.058 420.515 63.0548C420.515 58.734 421.339 54.9869 422.986 51.8134C424.633 48.6155 426.922 46.1378 429.854 44.3802C432.785 42.6225 436.176 41.7437 440.028 41.7437C444.097 41.7437 447.549 42.708 450.384 44.6365C453.242 46.5406 455.362 49.238 456.743 52.7288C458.123 56.2196 458.644 60.3331 458.305 65.0687H449.621V61.8464C449.596 57.5502 448.846 54.4132 447.368 52.4359C445.89 50.4586 443.564 49.4699 440.391 49.4699C436.806 49.4699 434.141 50.5928 432.397 52.8387C430.653 55.0601 429.781 58.3192 429.781 62.6154C429.781 66.6186 430.653 69.7191 432.397 71.9161C434.141 74.1131 436.685 75.2116 440.028 75.2116C442.184 75.2116 444.037 74.7356 445.587 73.7835C447.162 72.8069 448.373 71.4034 449.221 69.5726L457.869 72.209C456.367 75.7729 454.042 78.5437 450.892 80.521C447.767 82.4984 444.316 83.487 440.537 83.487ZM427.019 65.0687V58.4044H454.017V65.0687H427.019ZM463.506 82.3885V42.8422H471.245V52.4725L470.301 51.2275C470.785 49.9093 471.427 48.7131 472.226 47.6391C473.05 46.5406 474.031 45.6373 475.17 44.9294C476.139 44.2703 477.205 43.7577 478.367 43.3915C479.554 43.0009 480.765 42.769 482.001 42.6958C483.236 42.5981 484.435 42.647 485.598 42.8422V51.081C484.435 50.7393 483.091 50.6295 481.565 50.7515C480.063 50.8735 478.706 51.3008 477.495 52.0331C476.284 52.6922 475.291 53.5344 474.516 54.5597C473.764 55.5849 473.207 56.7567 472.844 58.0749C472.481 59.3685 472.299 60.7725 472.299 62.2858V82.3885H463.506Z" fill="white"/>
</g>
</g>
<defs>
<clipPath id="clip0_771_6391">
<rect width="486" height="115" fill="white"/>
</clipPath>
</defs>
</svg>
