<svg width="507" height="114" viewBox="0 0 507 114" fill="none" xmlns="http://www.w3.org/2000/svg">
<path d="M93.4393 48.0145C90.6564 55.7608 81.0606 57.8107 73.7215 55.7619C69.5752 54.6045 65.9314 51.0792 64.0385 47.4081V47.4102C62.8074 45.0263 62.6912 41.8382 62.25 39.2373C59.7448 37.8033 57.0383 37.6852 54.3405 38.6543C51.8514 39.549 52.9813 40.333 52.6854 42.436C50.8108 55.7587 32.7588 61.919 23.4923 51.7483C22.6745 50.8505 21.9524 49.2995 21.2561 48.541C21.042 48.3081 20.9914 48.1932 20.6191 48.2751C18.7111 51.0547 17.2476 54.2503 17.211 57.6863C17.2067 58.099 17.4488 58.3586 17.7394 58.0767C17.8438 57.9756 18.5056 56.0278 18.9167 56.0172L21.6586 58.2139C18.9199 61.7254 19.0878 68.1346 22.6992 70.977L22.9661 67.1102L26.6163 67.3666C24.9505 72.4918 29.4401 76.8788 33.9232 78.4585C32.8621 76.3725 33.5508 76.064 35.687 75.6853C37.2387 75.4108 36.5565 75.7874 37.0967 76.7395C38.6194 79.4234 42.1448 82.1807 45.3053 82.5636C46.4095 82.6977 45.6885 82.4296 45.6809 81.9232C45.6712 81.2999 48.0366 80.384 48.6564 79.9914C52.0688 85.289 62.8903 85.189 66.4135 80.0393C66.7794 80.3957 69.318 81.4339 69.4202 81.5669C69.6074 81.8115 68.6658 82.6296 69.5418 82.5817C72.3828 82.4275 77.3211 79.3127 77.5363 76.1619C77.6913 76.0299 81.0391 76.5267 81.1682 76.6544C81.377 76.8597 80.4063 78.4522 81.292 78.1969C82.9535 77.716 86.6145 74.4545 87.4399 72.9205C88.431 71.0792 88.1985 69.1239 88.2287 67.1198L91.6066 66.59C91.739 68.1442 92.0909 69.6686 91.7358 71.2302C94.4476 68.8378 95.3558 65.955 94.6176 62.4552C94.4562 61.6882 93.1444 58.449 93.1961 58.232C93.2639 57.9458 95.6765 56.4161 96.136 56.5502C96.8807 56.7672 96.9636 58.7447 97.6093 59.1075C97.591 56.2619 97.1831 53.2227 95.8336 50.6749C95.6023 50.2388 93.9676 47.6251 93.4393 48.0145ZM72.6884 67.1113C68.5141 72.3557 62.1779 72.0408 57.5086 67.6453C52.0053 72.0844 46.2556 72.3259 41.6229 66.5943C40.141 64.7604 40.5435 62.4552 43.1327 63.0296C44.3013 63.2892 45.8617 66.7092 48.5262 67.2506C50.4826 67.6474 54.6902 66.0603 55.4543 64.2646C55.6727 63.7508 55.7115 59.9755 55.4693 59.6149C55.3273 59.4021 51.7406 58.3022 50.7624 57.5597C47.5039 55.0907 48.2668 51.309 51.5964 49.3559C55.0163 47.3507 60.4195 47.2858 63.6586 49.7133C69.0672 53.7684 64.5637 59.1085 59.2455 59.3681H59.2444C59.4521 60.6829 58.8936 63.1243 59.3789 64.2646C59.5403 64.6444 61.1706 65.9103 61.6151 66.1815C63.5467 67.3634 65.4988 67.8655 67.6091 66.7336C69.5859 65.6731 70.5846 62.3626 72.8918 63.0349C74.9095 63.6232 73.4718 66.1273 72.6884 67.1113Z" fill="white"/>
<path d="M55.1875 87.2454C54.3481 87.2295 53.5862 86.6678 52.8308 87.2167C52.6166 87.3731 50.9088 89.9804 50.9024 90.1984C50.8948 90.4527 52.7555 94.7142 52.9685 94.8567L61.8121 94.9333C62.1005 93.8589 64.2226 91.0995 64.1979 90.1942C64.1774 89.4378 62.0758 87.8794 61.8024 87.0284C59.6082 87.2348 57.3989 87.288 55.1875 87.2454Z" fill="white"/>
<path d="M85.3145 88.7022C85.3693 88.6448 85.4253 88.5852 85.4791 88.5278C85.5695 88.4309 85.6728 88.3203 85.7836 88.2012C85.6728 88.3203 85.5695 88.4309 85.478 88.5288C85.4242 88.5863 85.3683 88.6437 85.3145 88.7022Z" fill="white"/>
<path d="M53.1582 98.3783C52.1305 98.6858 49.3444 106.135 49.6253 107.171C50.1063 108.95 55.403 112.594 56.8977 113.94C57.8415 114.381 60.0098 112.322 60.8116 111.62C61.3765 111.126 64.9848 107.658 65.1236 107.349C65.5809 106.328 62.9886 99.5836 61.85 98.4592C61.4777 98.2379 53.7737 98.1954 53.1582 98.3783Z" fill="white"/>
<path d="M103.613 22.864C99.5376 19.4142 97.4209 14.4485 91.9563 11.6827C87.9015 9.6307 82.9642 10.0871 78.5424 9.72006C78.3799 9.60517 77.9516 6.93617 78.0183 6.64576C78.169 5.98941 82.1776 6.10855 79.9564 4.71076C78.3466 3.69805 74.9471 4.15228 73.136 4.59906C72.2794 4.81075 70.0443 5.97239 69.4223 5.58518C69.1812 5.43518 68.047 3.09808 68.0986 2.7715C68.1288 2.58321 70.6781 1.46944 70.4683 0.54609C68.1675 -0.264504 65.7839 1.19925 63.9663 2.50024C62.7923 3.34062 61.3255 5.26392 59.904 5.20435C58.0745 5.12775 56.7671 1.65454 55.8491 0.28653C55.2056 0.552473 55.8384 2.13749 55.5564 2.57151C55.4693 2.70448 53.0329 3.40232 52.6272 3.87144C51.1777 2.48428 49.4021 1.07691 47.4424 0.470562C46.4793 0.172706 44.9028 -0.390029 44.1118 0.414182C46.4029 1.79602 45.075 2.69597 44.3357 4.64055C41.6949 4.17355 39.4232 3.3736 36.6575 3.6289C36.226 3.66826 32.5521 4.47354 33.5605 5.1969C34.0436 5.54369 35.8418 5.91814 35.9968 6.3862C36.0581 6.57023 35.59 9.44348 35.4663 9.54666C30.3321 9.45305 24.7492 9.91579 20.379 12.8231C16.9354 15.1134 14.7821 19.3557 11.4849 22.0917C9.69526 23.5767 7.40204 24.766 5.60277 26.3394C2.04187 29.4498 -0.913162 33.7868 0.261965 38.7291C1.23478 38.0313 2.4056 34.4389 3.79488 35.3612C4.01764 35.5091 5.69746 37.2111 5.72114 37.3462C2.27647 41.2024 0.35774 46.9446 3.26005 51.6252L3.9154 49.8243L7.30627 50.8572C5.84274 55.2729 9.35521 59.7258 13.8308 60.1439H13.8276V54.8538C13.8276 53.5538 15.3998 49.8402 16.1262 48.6116C16.6341 47.7531 19.545 44.5458 19.5719 44.2714C19.6128 43.8469 19.304 43.1129 19.2964 42.4821C19.276 40.9556 19.3018 39.4663 19.5644 37.9621C14.3592 37.1835 15.2911 32.6177 17.2722 29.103C17.551 28.6095 18.994 26.8383 19.0199 26.6925C19.0877 26.3128 17.707 25.2554 18.1202 23.2321C18.5249 21.2535 22.3806 17.6494 24.1261 16.5293C24.38 16.3665 24.563 16.2101 24.8998 16.2633C25.072 16.291 26.7163 18.7472 26.6388 19.2142C26.6162 19.3525 24.7567 20.5822 24.3919 20.9194C24.0701 21.2162 21.6133 23.4938 21.9211 23.7629C23.2254 23.8884 24.4812 23.6895 25.7704 23.5693C26.0158 23.5459 26.5872 23.3395 26.3547 23.8895C26.1976 24.2618 24.21 26.0149 23.7494 26.5489C21.8791 28.7148 19.4256 31.3593 19.3115 34.3411C21.6176 33.7273 22.4688 31.1987 24.4059 29.7041C30.4171 25.066 43.8568 25.6096 49.2008 31.2402C50.4029 32.5071 50.9431 34.2889 51.8126 35.3697C52.2893 35.9612 54.7881 34.7389 55.748 34.6283C58.2661 34.3368 60.8176 34.7134 63.1549 35.6325C66.1121 26.0734 81.5308 24.2671 88.9754 29.0754C91.2191 30.5253 92.7182 33.0007 95.26 34.0836C95.2062 30.6838 92.3017 28.3446 89.8148 26.4383C90.044 26.0224 91.2159 23.6012 91.3526 23.5065C91.7023 23.2661 92.6278 24.4671 93.1734 24.2778C93.4822 22.5704 88.8635 19.778 88.7634 19.4621C88.5471 18.7802 89.4091 17.1239 89.2617 16.2793C92.871 16.5335 97.4854 22.3545 97.3315 25.6798C97.296 26.4543 96.4792 27.3308 96.6116 27.9563C96.6805 28.285 97.8244 29.8041 98.1386 30.5955C99.332 33.5954 99.5828 38.7536 95.0039 37.6962C94.8747 37.8355 95.5398 40.8045 95.5462 41.4364C95.5549 42.2683 94.9705 43.7969 95.0598 44.248C95.1459 44.6809 96.0951 45.0309 96.448 45.4256C98.229 47.4106 101.005 52.2241 101.005 54.8538V59.6269C106.984 59.4408 108.098 54.9197 107.007 49.8232L110.661 49.3051L110.926 52.1443C115.055 47.4127 110.946 40.0546 107.81 35.7963C108.113 35.3346 110.246 33.2901 110.654 33.573C111.59 35.3389 113.248 36.7601 113.798 38.7281C116.033 35.9548 114.473 31.938 112.363 29.4371C109.865 26.4766 106.367 25.1958 103.613 22.864Z" fill="white"/>
<path d="M65.5098 86.0734L74.7709 97.0718C75.0001 97.3441 75.4079 97.3898 75.692 97.1739C82.0885 92.3071 86.8644 87.5031 89.6053 83.7331C89.9496 83.2597 89.9991 82.6353 89.8076 82.0843C89.1156 80.4833 88.4118 78.8664 88.2149 77.9473C88.2149 77.9473 82.8945 81.5886 81.8507 81.8822C80.8069 82.1758 78.787 82.1321 77.7098 82.6566C76.3915 83.298 76.6315 83.7821 72.6186 85.3905C69.4333 86.667 65.5098 86.0745 65.5098 86.0745V86.0734Z" fill="white"/>
<path d="M49.276 86.0734L40.0149 97.0718C39.7856 97.3441 39.3778 97.3898 39.0937 97.1739C32.6972 92.3071 27.9214 87.5031 25.1805 83.7331C24.8361 83.2597 24.7866 82.6353 24.9782 82.0843C25.6701 80.4833 26.3739 78.8664 26.5708 77.9473C26.5708 77.9473 31.8912 81.5886 32.935 81.8822C33.9789 82.1758 35.9988 82.1321 37.076 82.6566C38.3942 83.298 38.1542 83.7821 42.1671 85.3905C45.3524 86.667 49.276 86.0745 49.276 86.0745V86.0734Z" fill="white"/>
<path d="M81.5375 30.2715C67.4177 29.5545 65.5098 35.7818 65.5098 41.2443C65.5098 46.7067 70.4255 53.6553 80.6906 52.8649C86.2262 52.4384 91.2205 46.7333 91.2205 41.2443C91.2205 35.7552 87.0828 30.5523 81.5375 30.2715ZM74.7666 47.4886C71.8266 47.4886 69.443 44.6749 69.443 41.2049C69.443 37.7349 71.8266 34.9212 74.7666 34.9212C77.7066 34.9212 80.0902 37.7338 80.0902 41.2049C80.0902 44.676 77.7066 47.4886 74.7666 47.4886Z" fill="white"/>
<path d="M76.2446 40.7072C76.9729 40.6595 77.5199 39.9741 77.4664 39.1762C77.4129 38.3784 76.7793 37.7703 76.051 37.8179C75.3228 37.8656 74.7758 38.5511 74.8292 39.3489C74.8827 40.1468 75.5164 40.7549 76.2446 40.7072Z" fill="white"/>
<path d="M23.5664 41.2425C23.5664 46.7315 28.5596 52.4366 34.0963 52.8631C44.3625 53.6535 49.2771 46.7049 49.2771 41.2425C49.2771 35.78 47.3703 29.5516 33.2494 30.2697C27.7041 30.5516 23.5664 35.7534 23.5664 41.2425ZM34.6968 41.2031C34.6968 37.7331 37.0804 34.9194 40.0203 34.9194C42.9603 34.9194 45.3439 37.732 45.3439 41.2031C45.3439 44.6742 42.9603 47.4868 40.0203 47.4868C37.0804 47.4868 34.6968 44.6731 34.6968 41.2031Z" fill="white"/>
<path d="M39.9625 39.3492C40.016 38.5513 39.469 37.8659 38.7407 37.8182C38.0125 37.7705 37.3788 38.3786 37.3253 39.1765C37.2719 39.9743 37.8189 40.6598 38.5471 40.7074C39.2753 40.7551 39.909 40.147 39.9625 39.3492Z" fill="white"/>
<path d="M460.387 90.2626V20.5215H472.087V48.9993C473.713 46.3517 475.923 44.2528 478.719 42.703C481.515 41.0887 484.668 40.2815 488.178 40.2815C492.211 40.2815 495.623 41.121 498.419 42.7999C501.215 44.4143 503.329 46.8359 504.757 50.0646C506.252 53.2287 507.001 57.2004 507.001 61.9789V90.2626H495.396V63.0441C495.396 58.847 494.485 55.6503 492.664 53.4548C490.911 51.2594 488.21 50.1615 484.572 50.1615C482.229 50.1615 480.119 50.7426 478.231 51.9051C476.347 53.0029 474.852 54.6173 473.745 56.7482C472.642 58.8147 472.087 61.3655 472.087 64.4004V90.2626H460.387Z" fill="white"/>
<path d="M435.543 91.4249C431.188 91.4249 427.385 90.7466 424.133 89.3906C420.948 87.9701 418.413 86.0327 416.525 83.5788C414.705 81.0604 413.634 78.1869 413.309 74.9582H425.013C425.338 76.3142 425.921 77.5732 426.766 78.7357C427.611 79.8336 428.749 80.7054 430.181 81.3511C431.676 81.9968 433.429 82.3198 435.447 82.3198C437.395 82.3198 438.99 82.0614 440.223 81.5449C441.46 80.9635 442.369 80.2209 442.956 79.3168C443.539 78.4127 443.832 77.444 443.832 76.4111C443.832 74.8613 443.412 73.6665 442.564 72.827C441.719 71.9875 440.485 71.3419 438.859 70.8897C437.3 70.3732 435.412 69.889 433.203 69.4368C430.863 68.9849 428.586 68.4358 426.377 67.7901C424.231 67.0798 422.28 66.2081 420.527 65.1748C418.834 64.1418 417.469 62.8178 416.43 61.2034C415.454 59.5891 414.966 57.6197 414.966 55.2948C414.966 52.4536 415.716 49.9029 417.211 47.6428C418.77 45.3824 420.979 43.6069 423.842 42.3152C426.766 40.9592 430.244 40.2812 434.274 40.2812C439.997 40.2812 444.547 41.6049 447.929 44.2526C451.376 46.8356 453.391 50.4839 453.974 55.1982H442.857C442.532 53.39 441.623 52.0014 440.128 51.033C438.632 49.9998 436.649 49.483 434.179 49.483C431.644 49.483 429.693 49.9675 428.328 50.9361C427.027 51.8402 426.377 53.067 426.377 54.6168C426.377 55.5855 426.766 56.4895 427.547 57.329C428.392 58.1039 429.594 58.7819 431.156 59.363C432.715 59.8798 434.634 60.3963 436.908 60.9131C440.549 61.6233 443.769 62.4628 446.565 63.4315C449.358 64.3999 451.57 65.8208 453.196 67.6932C454.819 69.566 455.632 72.2136 455.632 75.6362C455.699 78.7357 454.886 81.4803 453.196 83.8695C451.57 86.2588 449.262 88.1316 446.271 89.4875C443.281 90.7789 439.704 91.4249 435.543 91.4249Z" fill="white"/>
<path d="M381.927 91.4248C377.96 91.4248 374.546 90.6499 371.686 89.0999C368.89 87.4855 366.744 85.0962 365.249 81.9321C363.754 78.7034 363.008 74.732 363.008 70.0181V41.4434H374.709V68.8556C374.709 73.0531 375.588 76.2495 377.342 78.445C379.162 80.5761 381.895 81.6414 385.536 81.6414C387.876 81.6414 389.955 81.0926 391.775 79.9947C393.662 78.8972 395.123 77.3151 396.165 75.2485C397.268 73.1177 397.823 70.5346 397.823 67.4997V41.4434H409.524V90.2623H399.188L398.311 82.1259C396.816 84.967 394.635 87.2274 391.775 88.9064C388.979 90.5853 385.698 91.4248 381.927 91.4248Z" fill="white"/>
<path d="M307.246 111.572V41.4434H317.681L318.949 48.5146C319.989 47.0937 321.225 45.77 322.653 44.543C324.149 43.2516 325.937 42.2183 328.019 41.4434C330.165 40.6685 332.601 40.2812 335.333 40.2812C339.949 40.2812 344.011 41.4111 347.521 43.6715C351.099 45.9315 353.895 48.9988 355.91 52.8732C357.924 56.6833 358.932 61.0419 358.932 65.9497C358.932 70.8577 357.893 75.2486 355.811 79.123C353.796 82.9331 351 85.9358 347.426 88.1316C343.916 90.327 339.882 91.4249 335.333 91.4249C331.625 91.4249 328.376 90.7466 325.58 89.3906C322.851 87.97 320.639 85.9681 318.949 83.385V111.572H307.246ZM332.894 81.3511C335.626 81.3511 338.062 80.7054 340.208 79.4137C342.353 78.1223 344.011 76.3142 345.181 73.9895C346.418 71.6649 347.034 68.9849 347.034 65.9497C347.034 62.8501 346.418 60.1382 345.181 57.8132C344.011 55.4886 342.353 53.6804 340.208 52.389C338.062 51.0973 335.626 50.4516 332.894 50.4516C330.098 50.4516 327.627 51.0973 325.481 52.389C323.403 53.6804 321.745 55.4886 320.509 57.8132C319.339 60.1382 318.754 62.8178 318.754 65.8531C318.754 68.9526 319.339 71.6649 320.509 73.9895C321.745 76.2496 323.403 78.0577 325.481 79.4137C327.627 80.7054 330.098 81.3511 332.894 81.3511Z" fill="white"/>
<path d="M278.396 91.4249C273.519 91.4249 269.229 90.3916 265.523 88.325C261.817 86.1942 258.924 83.2235 256.844 79.4137C254.763 75.6039 253.723 71.2127 253.723 66.2404C253.723 61.0742 254.73 56.5541 256.746 52.6797C258.826 48.805 261.72 45.77 265.425 43.5746C269.196 41.3788 273.552 40.2812 278.493 40.2812C283.304 40.2812 287.498 41.3465 291.073 43.4777C294.649 45.6085 297.413 48.4823 299.363 52.0983C301.313 55.6501 302.289 59.6537 302.289 64.1095C302.289 64.7552 302.289 65.4655 302.289 66.2404C302.289 67.0152 302.223 67.8224 302.093 68.6619H262.11V61.2034H290.488C290.358 57.652 289.156 54.8752 286.88 52.8732C284.605 50.8069 281.776 49.7737 278.396 49.7737C275.99 49.7737 273.78 50.3224 271.764 51.4203C269.749 52.5182 268.156 54.1649 266.986 56.3603C265.816 58.4915 265.23 61.2034 265.23 64.4968V67.3059C265.23 70.3409 265.783 72.9562 266.888 75.1517C268.058 77.3475 269.619 79.0264 271.569 80.1886C273.585 81.2865 275.828 81.8353 278.298 81.8353C281.029 81.8353 283.272 81.2542 285.027 80.0917C286.847 78.9295 288.18 77.3798 289.026 75.4424H300.923C300.013 78.4773 298.518 81.2219 296.437 83.6757C294.357 86.065 291.789 87.9701 288.733 89.3906C285.677 90.7466 282.232 91.4249 278.396 91.4249Z" fill="white"/>
<path d="M236.467 90.2626V20.5215H248.169V90.2626H236.467Z" fill="white"/>
<path d="M207.626 91.4249C202.75 91.4249 198.459 90.3916 194.753 88.325C191.047 86.1942 188.154 83.2235 186.074 79.4137C183.993 75.6039 182.953 71.2127 182.953 66.2404C182.953 61.0742 183.961 56.5541 185.976 52.6797C188.056 48.805 190.95 45.77 194.656 43.5746C198.426 41.3788 202.782 40.2812 207.724 40.2812C212.535 40.2812 216.728 41.3465 220.304 43.4777C223.879 45.6085 226.643 48.4823 228.593 52.0983C230.543 55.6501 231.519 59.6537 231.519 64.1095C231.519 64.7552 231.519 65.4655 231.519 66.2404C231.519 67.0152 231.454 67.8224 231.324 68.6619H191.34V61.2034H219.719C219.588 57.652 218.386 54.8752 216.11 52.8732C213.835 50.8069 211.007 49.7737 207.626 49.7737C205.22 49.7737 203.01 50.3224 200.995 51.4203C198.979 52.5182 197.386 54.1649 196.216 56.3603C195.046 58.4915 194.461 61.2034 194.461 64.4968V67.3059C194.461 70.3409 195.013 72.9562 196.118 75.1517C197.289 77.3475 198.849 79.0264 200.799 80.1886C202.815 81.2865 205.058 81.8353 207.528 81.8353C210.259 81.8353 212.502 81.2542 214.257 80.0917C216.078 78.9295 217.411 77.3798 218.256 75.4424H230.154C229.243 78.4773 227.748 81.2219 225.667 83.6757C223.587 86.065 221.019 87.9701 217.963 89.3906C214.908 90.7466 211.462 91.4249 207.626 91.4249Z" fill="white"/>
<path d="M158.271 90.263V31.8547H138.182V22.459H189.965V31.8547H169.876V90.263H158.271Z" fill="white"/>
</svg>
