<svg width="110" height="28" viewBox="0 0 110 28" fill="none" xmlns="http://www.w3.org/2000/svg">
<path fill-rule="evenodd" clip-rule="evenodd" d="M98.0122 21.4914C97.1203 20.6347 96.5903 19.6568 96.4051 18.5456L109.834 18.5813L109.911 16.7917C109.98 14.1951 109.171 12.1583 107.548 10.486C105.926 8.80399 103.897 7.96201 101.498 7.96201C99.1605 7.96201 97.1246 8.87293 95.4134 10.6554C93.7071 12.4331 92.8535 14.6016 92.8535 17.1287C92.8535 19.658 93.72 21.8323 95.4485 23.6202L95.4496 23.6214C97.1761 25.3956 99.2572 26.2953 101.666 26.2953C102.552 26.2953 103.415 26.1636 104.254 25.8998L104.257 25.8991L104.259 25.8984C105.079 25.6328 105.765 25.3431 106.305 25.024L106.308 25.0221C106.842 24.7018 107.336 24.339 107.789 23.9337L107.789 23.9332C108.22 23.5463 108.536 23.2417 108.694 23.0415C108.829 22.8725 108.934 22.7386 109.007 22.6422L109.287 22.268L106.998 19.9796L106.022 21.0957L106.015 21.1043C105.713 21.4798 105.16 21.8988 104.299 22.3455C103.491 22.7649 102.616 22.9758 101.666 22.9758C100.27 22.9758 99.0607 22.4875 98.0122 21.4914ZM98.0774 12.6839C97.246 13.4721 96.7089 14.3726 96.4539 15.3931H106.388C106.149 14.289 105.63 13.3693 104.834 12.617L104.832 12.615C103.913 11.7361 102.812 11.2984 101.498 11.2984C100.191 11.2984 99.0585 11.7539 98.0774 12.6839Z" fill="white"/>
<path fill-rule="evenodd" clip-rule="evenodd" d="M83.7256 11.1443C83.545 11.2397 83.3767 11.3529 83.2214 11.4838C82.6485 11.9668 82.3622 12.5285 82.3622 13.1688C82.3622 13.8316 82.6712 14.3652 83.2888 14.7696C83.3856 14.8328 83.4851 14.8941 83.5881 14.9534C83.4851 14.8941 83.3856 14.8328 83.2891 14.7696C82.6712 14.3652 82.3622 13.8316 82.3622 13.1688C82.3622 12.5285 82.6488 11.9668 83.2217 11.4838C83.3767 11.3529 83.545 11.2397 83.7256 11.1443ZM83.5843 14.3184C84.1462 14.6863 84.8396 14.9916 85.6733 15.2271C86.5622 15.4664 87.4502 15.7454 88.3378 16.064C89.3022 16.3983 90.1266 16.9568 90.8044 17.7326C91.5235 18.544 91.8659 19.5713 91.8659 20.7684C91.8659 22.3532 91.252 23.6908 90.0476 24.7462L90.0452 24.7483C88.8328 25.7982 87.2292 26.2953 85.2942 26.2953C84.4611 26.2953 83.669 26.1882 82.9195 25.9706L82.9173 25.97C82.2004 25.7584 81.5847 25.4995 81.0824 25.1855C80.6162 24.8942 80.2024 24.5993 79.8433 24.2999L79.8357 24.2937L79.8284 24.2872C79.493 23.9864 79.2242 23.7145 79.0382 23.4753L79.0282 23.4624L78.5459 22.7575L81.0662 20.2617L81.4291 20.8063C81.4693 20.8664 81.5256 20.9484 81.5989 21.0534C81.6618 21.1322 81.8119 21.2981 82.0694 21.5664C82.3277 21.8136 82.6008 22.0403 82.889 22.2466C83.1516 22.4238 83.5072 22.5946 83.9685 22.7519C84.4085 22.9019 84.8499 22.9758 85.2942 22.9758C86.3918 22.9758 87.1421 22.7322 87.6274 22.3263L87.6293 22.3247L87.6311 22.3232C88.1385 21.9064 88.378 21.4008 88.378 20.7684C88.378 20.2836 88.1709 19.8858 87.6708 19.5464L87.6659 19.5433L87.6616 19.54C87.103 19.1439 86.4144 18.825 85.5859 18.5913L85.5819 18.5901L85.5781 18.5889C84.7054 18.3283 83.8275 18.0451 82.944 17.7393L82.9413 17.7383L82.9384 17.7373C81.9842 17.3948 81.1597 16.8601 80.4714 16.135L80.4682 16.1316L80.465 16.1281C79.7419 15.3394 79.3965 14.3373 79.3965 13.1688C79.3965 11.7484 80.0002 10.5182 81.1438 9.4975L81.146 9.49562C82.3129 8.46528 83.7647 7.96201 85.4627 7.96201C86.1456 7.96201 86.8129 8.04572 87.4629 8.21371C88.1075 8.3665 88.6621 8.5659 89.1118 8.82203C89.5211 9.04448 89.8902 9.28171 90.2167 9.53474C90.5319 9.76032 90.7834 9.95899 90.9498 10.1252L91.5855 10.761L88.9999 13.3216L88.6368 12.777C88.5745 12.6835 88.4669 12.5545 88.2998 12.3874L88.2879 12.3755L88.2769 12.3629C88.2437 12.3253 88.1534 12.2469 87.9671 12.1288C87.7883 12.0156 87.5489 11.8828 87.2437 11.7302L87.2402 11.7284L87.2367 11.7267C86.6856 11.4412 86.0968 11.2984 85.4627 11.2984C84.6385 11.2984 84.0241 11.5125 83.5692 11.896C83.0947 12.296 82.9014 12.7152 82.9014 13.1688C82.9014 13.6265 83.0982 14.0003 83.5843 14.3184Z" fill="white"/>
<path fill-rule="evenodd" clip-rule="evenodd" d="M75.0904 1.23865C75.665 1.23865 76.1699 1.44279 76.5671 1.85143C76.9758 2.24861 77.1799 2.7535 77.1799 3.32811C77.1799 3.9058 76.9739 4.41468 76.5671 4.82152C76.1672 5.22132 75.662 5.41757 75.0904 5.41757C74.5191 5.41757 74.0125 5.22173 73.6044 4.82864L73.5971 4.8216L73.5901 4.81427C73.197 4.40605 73.001 3.89946 73.001 3.32811C73.001 2.75662 73.1973 2.25135 73.5971 1.85154C74.0039 1.44471 74.5129 1.23865 75.0904 1.23865ZM73.355 8.31585V25.9583H76.8429V8.31585H73.355Z" fill="white"/>
<path fill-rule="evenodd" clip-rule="evenodd" d="M72.1905 25.9583L64.7598 15.626L71.7036 8.31585H67.2828L59.7643 16.2928V0.716278H56.2764V25.9583H59.7643V20.9839L62.4544 18.1558L68.0995 25.9583H72.1905Z" fill="white"/>
<path fill-rule="evenodd" clip-rule="evenodd" d="M46.9826 7.96201C48.3546 7.96201 49.6393 8.26076 50.8288 8.86091C51.973 9.42191 52.8479 10.0082 53.3998 10.635L54.4707 11.8055L51.9016 14.3495L51.5387 13.8049C51.4999 13.7468 51.4376 13.6584 51.3489 13.5365C51.2847 13.4483 51.1092 13.25 50.7905 12.9199L50.7873 12.9163L50.7838 12.9128C50.5091 12.6175 50.2106 12.365 49.8884 12.1536L49.8836 12.1504L49.8787 12.1472C49.5735 11.9372 49.1573 11.7378 48.6151 11.5572C48.0996 11.3853 47.5563 11.2984 46.9826 11.2984C45.5588 11.2984 44.321 11.8463 43.2464 12.9831C42.1906 14.1003 41.6578 15.4757 41.6578 17.1455C41.6578 18.8022 42.1895 20.1784 43.2461 21.3079C44.3202 22.4326 45.5577 22.9758 46.9826 22.9758C47.8591 22.9758 48.6879 22.7678 49.4759 22.3482C50.3112 21.9034 50.8728 21.4818 51.2038 21.0955L52.1154 19.9905L54.6184 22.2481L54.3227 22.6422C54.2437 22.7476 54.1269 22.8882 53.9795 23.0586C53.815 23.2499 53.4942 23.549 53.0501 23.9376L53.0472 23.9402L53.0442 23.9427C52.5743 24.3423 52.0798 24.7013 51.5616 25.0193L51.5578 25.0217L51.5538 25.024C51.0151 25.3424 50.3354 25.632 49.5269 25.8977L49.5247 25.8984L49.5223 25.8992C48.6946 26.1631 47.8475 26.2953 46.9826 26.2953C44.5736 26.2953 42.4925 25.3956 40.766 23.6214L40.7646 23.6202C39.0364 21.8323 38.1699 19.658 38.1699 17.1287C38.1699 14.5993 39.0364 12.4299 40.766 10.6527C42.5022 8.8688 44.5831 7.96201 46.9826 7.96201Z" fill="white"/>
<path fill-rule="evenodd" clip-rule="evenodd" d="M34.2008 1.23865C34.7753 1.23865 35.28 1.44279 35.6772 1.85143C36.0859 2.24861 36.2902 2.7535 36.2902 3.32811C36.2902 3.9058 36.084 4.41468 35.6772 4.82152C35.2773 5.22132 34.7721 5.41757 34.2008 5.41757C33.6292 5.41757 33.1226 5.22173 32.7144 4.82864L32.7072 4.8216L32.7002 4.81427C32.3071 4.40605 32.1113 3.89946 32.1113 3.32811C32.1113 2.75662 32.3073 2.25135 32.7072 1.85154C33.114 1.44471 33.623 1.23865 34.2008 1.23865ZM32.4651 8.31585V25.9583H35.9532V8.31585H32.4651Z" fill="white"/>
<path fill-rule="evenodd" clip-rule="evenodd" d="M28.8661 25.9583V0.716278H25.3779V25.9583H28.8661Z" fill="white"/>
<path fill-rule="evenodd" clip-rule="evenodd" d="M13.0552 22.8069C10.4712 22.7868 8.30854 21.8814 6.53414 20.086C4.74063 18.2713 3.8421 16.0339 3.8421 13.3373C3.8421 10.6407 4.74063 8.40331 6.53414 6.58858C8.32873 4.77275 10.5205 3.86732 13.1436 3.86732C14.1235 3.86732 15.0562 4.01097 15.9443 4.29643C16.8612 4.59114 17.5715 4.91057 18.0911 5.2468L18.0963 5.25012L18.1015 5.25332C18.6535 5.59303 19.1626 5.98552 19.6294 6.43108C20.1294 6.90839 20.4051 7.20493 20.5048 7.34618L20.5093 7.35252L20.514 7.35875C20.6443 7.53251 20.7328 7.6616 20.7863 7.75076L21.1217 8.30973L23.7107 5.99723L23.033 5.08382C22.7504 4.68696 22.3118 4.23572 21.7417 3.73387C21.1679 3.21889 20.5003 2.71461 19.7416 2.22018C18.9562 1.70088 17.9787 1.2721 16.8226 0.925085C15.6462 0.560652 14.4191 0.379272 13.1436 0.379272C9.55339 0.379272 6.4838 1.64261 3.96634 4.16006C1.44888 6.67753 0.185547 9.74712 0.185547 13.3373C0.185547 16.9275 1.44888 19.9971 3.96634 22.5145C6.4838 25.032 9.55339 26.2953 13.1436 26.2953C14.42 26.2953 15.658 26.1137 16.8558 25.7497L16.859 25.7487C17.2265 25.6345 17.5744 25.5152 17.9022 25.3904L16.5921 24.0468C16.5892 24.0438 16.5857 24.0416 16.5818 24.0403L13.0552 22.8069Z" fill="white"/>
<path d="M21.8412 14.3932C22.4479 14.1161 23.1379 14.5591 23.1386 15.2261L23.1495 25.8781C23.1504 26.7125 22.1265 27.114 21.5599 26.5014L17.891 22.5346C17.7863 22.4214 17.6548 22.3365 17.5086 22.2876L12.235 20.5247C11.446 20.261 11.388 19.1671 12.1448 18.8215L21.8412 14.3932Z" fill="#52CA01"/>
</svg>
