<svg width="215" height="61" viewBox="0 0 215 61" fill="none" xmlns="http://www.w3.org/2000/svg">
<g clip-path="url(#clip0_766_6263)">
<path d="M45.7447 0H15.2482C6.82686 0 0 6.82766 0 15.25V45.75C0 54.1723 6.82686 61 15.2482 61H45.7447C54.166 61 60.9929 54.1723 60.9929 45.75V15.25C60.9929 6.82766 54.166 0 45.7447 0Z" fill="#006FFD"/>
<path d="M14.6528 14.3359H48.185L45.7314 22.4863H12.1992L14.6528 14.3359Z" fill="white"/>
<path d="M45.9342 35.2485L40.8545 38.8644C40.6781 38.9897 40.529 39.1529 40.4236 39.3361C40.3182 39.5191 40.2606 39.715 40.2571 39.9023L40.1495 45.2988C40.1305 46.2065 38.9734 46.9228 38.3079 46.4383L34.3519 43.5564C34.0718 43.3522 33.6551 43.3522 33.2719 43.5564L28.2969 46.3134C27.883 46.5428 27.434 46.6652 27.0064 46.6652H26.1482L26.5564 45.2988L27.4509 42.3522C27.6043 42.0371 27.8188 41.7414 28.0799 41.4854C28.3411 41.2294 28.6427 41.0188 28.9644 40.8679L35.3084 38.1586C35.7784 37.9379 35.7473 37.3017 35.2691 37.353L29.4518 37.9793C29.1373 38.0134 28.8356 37.9837 28.5652 37.8916C28.2947 37.7996 28.0616 37.6474 27.8801 37.4446L25.9111 35.2485C25.366 34.6409 26.0329 33.4816 26.9718 33.4055L32.5568 32.9524C32.7506 32.9369 32.9499 32.8687 33.1328 32.7555C33.3157 32.6424 33.475 32.4884 33.5935 32.3107L37.0106 27.1945C37.5853 26.3336 38.791 26.3336 38.9282 27.1945L39.7452 32.3107C39.7734 32.4884 39.8546 32.6424 39.9799 32.7555C40.1052 32.8687 40.2699 32.9369 40.4559 32.9524L45.8101 33.4055C46.7108 33.4816 46.7887 34.6409 45.9342 35.2485Z" fill="white"/>
<path d="M27.4651 42.3223L26.1555 46.6624H26.1484L26.556 45.2983L27.4505 42.3517C27.4554 42.3419 27.4602 42.3322 27.4651 42.3223Z" fill="white"/>
<path d="M24.3327 46.6629C24.333 46.4907 24.3579 46.3176 24.4084 46.1488L24.8188 44.775L25.7133 41.8284C25.7411 41.7373 25.7758 41.6484 25.8176 41.5628C26.0652 41.054 26.404 40.5907 26.8066 40.1958C27.0768 39.9308 27.3773 39.695 27.7008 39.496C27.2589 39.3031 26.8571 39.0195 26.5259 38.6495L24.5578 36.4544C23.5673 35.35 23.8759 33.9824 24.3102 33.2277C24.7646 32.4382 25.6497 31.6975 26.8247 31.6022L30.7978 31.2799L31.5878 28.6621H21.0101L15.6504 46.6629H24.3327Z" fill="white"/>
<path d="M79.3638 42.0663L83.7297 21.6611H76.2402L77.1753 17.291H97.0054L96.0704 21.6611H88.5809L84.2151 42.0663H79.3638Z" fill="white"/>
<path d="M100.413 38.2814C101.404 38.2814 102.259 38.0922 102.978 37.7137C103.696 37.3352 104.33 36.7444 104.879 35.9415L109.423 37.2147C108.875 38.0635 108.241 38.8205 107.521 39.4857C106.812 40.1511 106.03 40.713 105.177 41.1719C104.335 41.6306 103.434 41.9805 102.474 42.2214C101.513 42.4622 100.519 42.5827 99.4925 42.5827C98.0524 42.5827 96.7879 42.3417 95.6987 41.86C94.6214 41.3782 93.7498 40.7072 93.0841 39.847C92.4208 38.9753 91.9818 37.9372 91.7674 36.7329C91.5648 35.5285 91.6168 34.2095 91.9236 32.7757C92.2352 31.319 92.756 29.9885 93.4858 28.7842C94.2274 27.5797 95.1152 26.5475 96.1492 25.6872C97.183 24.827 98.3405 24.1618 99.6215 23.6914C100.917 23.2097 102.273 22.9688 103.689 22.9688C105.235 22.9688 106.542 23.2326 107.61 23.7602C108.677 24.2879 109.491 25.0334 110.052 25.9969C110.614 26.9604 110.912 28.1304 110.948 29.5067C110.987 30.8718 110.755 32.3972 110.252 34.0833H96.8315C96.7451 35.4253 97.0069 36.4633 97.6171 37.1975C98.2296 37.92 99.1616 38.2814 100.413 38.2814ZM106.109 30.6079C106.253 29.4953 106.035 28.635 105.457 28.0272C104.882 27.4077 103.998 27.098 102.805 27.098C101.661 27.098 100.657 27.4019 99.7953 28.0099C98.9333 28.6178 98.2404 29.4839 97.7167 30.6079H106.109Z" fill="white"/>
<path d="M112.188 42.0669L117.599 16.7754H122.415L117.004 42.0669H112.188Z" fill="white"/>
<path d="M131.018 38.2814C132.01 38.2814 132.865 38.0922 133.583 37.7137C134.302 37.3352 134.935 36.7444 135.485 35.9415L140.028 37.2147C139.481 38.0635 138.847 38.8205 138.126 39.4857C137.417 40.1511 136.636 40.713 135.782 41.1719C134.941 41.6306 134.039 41.9805 133.079 42.2214C132.119 42.4622 131.125 42.5827 130.098 42.5827C128.658 42.5827 127.393 42.3417 126.304 41.86C125.227 41.3782 124.355 40.7072 123.69 39.847C123.026 38.9753 122.587 37.9372 122.373 36.7329C122.17 35.5285 122.222 34.2095 122.529 32.7757C122.841 31.319 123.362 29.9885 124.091 28.7842C124.833 27.5797 125.721 26.5475 126.755 25.6872C127.789 24.827 128.946 24.1618 130.227 23.6914C131.522 23.2097 132.878 22.9688 134.295 22.9688C135.841 22.9688 137.148 23.2326 138.215 23.7602C139.283 24.2879 140.097 25.0334 140.658 25.9969C141.219 26.9604 141.518 28.1304 141.554 29.5067C141.592 30.8718 141.36 32.3972 140.858 34.0833H127.437C127.35 35.4253 127.612 36.4633 128.223 37.1975C128.835 37.92 129.767 38.2814 131.018 38.2814ZM136.715 30.6079C136.858 29.4953 136.641 28.635 136.063 28.0272C135.487 27.4077 134.603 27.098 133.411 27.098C132.266 27.098 131.263 27.4019 130.401 28.0099C129.539 28.6178 128.846 29.4839 128.322 30.6079H136.715Z" fill="white"/>
<path d="M140.152 50.325L145.895 23.485H150.711L150.221 25.7732C150.977 24.8901 151.862 24.2019 152.877 23.7087C153.891 23.2153 155.083 22.9688 156.452 22.9688C157.68 22.9688 158.767 23.2097 159.714 23.6914C160.661 24.1732 161.426 24.8498 162.006 25.7217C162.602 26.5819 162.988 27.6142 163.168 28.8185C163.358 30.0229 163.3 31.3419 162.994 32.7757C162.684 34.221 162.177 35.5457 161.471 36.7502C160.777 37.9545 159.947 38.9867 158.984 39.847C158.034 40.7072 156.98 41.3782 155.827 41.86C154.673 42.3417 153.482 42.5827 152.255 42.5827C150.886 42.5827 149.8 42.3361 148.996 41.8429C148.193 41.3496 147.602 40.6613 147.225 39.7782L144.968 50.325H140.152ZM152.128 38.2125C152.895 38.2125 153.596 38.0806 154.231 37.8169C154.865 37.5531 155.423 37.1802 155.905 36.6985C156.398 36.2167 156.809 35.6433 157.14 34.978C157.471 34.3128 157.723 33.5786 157.895 32.7757C158.072 31.9499 158.13 31.2044 158.072 30.539C158.028 29.8624 157.861 29.2888 157.573 28.8185C157.296 28.3483 156.895 27.9869 156.37 27.7347C155.861 27.4709 155.222 27.3389 154.455 27.3389C153.663 27.3389 152.95 27.4709 152.316 27.7347C151.693 27.9985 151.141 28.3712 150.66 28.853C150.194 29.3233 149.795 29.891 149.464 30.5562C149.144 31.2216 148.897 31.9614 148.723 32.7757C148.544 33.6131 148.476 34.3701 148.52 35.0468C148.579 35.7121 148.746 36.2799 149.023 36.7502C149.312 37.2203 149.713 37.5818 150.226 37.834C150.738 38.0864 151.372 38.2125 152.128 38.2125Z" fill="white"/>
<path d="M172.703 42.5827C171.274 42.5827 170.014 42.3475 168.923 41.8772C167.845 41.3955 166.974 40.7245 166.307 39.8642C165.644 38.9925 165.205 37.9545 164.992 36.7502C164.777 35.5457 164.824 34.221 165.133 32.7757C165.443 31.3305 165.961 30.0057 166.692 28.8014C167.422 27.597 168.303 26.5647 169.337 25.7044C170.371 24.8442 171.53 24.1732 172.814 23.6914C174.108 23.2097 175.47 22.9688 176.899 22.9688C178.338 22.9688 179.598 23.2097 180.674 23.6914C181.766 24.1618 182.643 24.8328 183.306 25.7044C183.985 26.5647 184.43 27.597 184.645 28.8014C184.86 30.0057 184.813 31.3305 184.503 32.7757C184.194 34.221 183.674 35.5457 182.945 36.7502C182.214 37.9545 181.325 38.9925 180.278 39.8642C179.244 40.7245 178.079 41.3955 176.783 41.8772C175.502 42.3475 174.142 42.5827 172.703 42.5827ZM173.637 38.2125C175.101 38.2125 176.336 37.7365 177.343 36.7845C178.349 35.8326 179.035 34.4962 179.404 32.7757C179.776 31.0323 179.662 29.6903 179.061 28.7497C178.471 27.8093 177.439 27.3389 175.964 27.3389C174.488 27.3389 173.255 27.8093 172.262 28.7497C171.285 29.6788 170.607 31.0208 170.232 32.7757C169.859 34.5193 169.967 35.8613 170.557 36.8017C171.147 37.7423 172.173 38.2125 173.637 38.2125Z" fill="white"/>
<path d="M200.005 27.511C199.713 27.4422 199.374 27.3963 198.99 27.3733C198.618 27.3504 198.202 27.3389 197.741 27.3389C197.056 27.3389 196.431 27.4478 195.864 27.6658C195.314 27.8722 194.824 28.1705 194.399 28.5605C193.973 28.9504 193.612 29.4265 193.315 29.9885C193.031 30.539 192.817 31.1527 192.673 31.8295L190.481 42.0665H185.666L189.641 23.485H194.458L193.967 25.7732C194.292 25.3603 194.656 24.9817 195.06 24.6377C195.477 24.2937 195.934 24.0012 196.434 23.7602C196.938 23.5078 197.486 23.3129 198.083 23.1752C198.679 23.0377 199.325 22.9688 200.021 22.9688C200.187 22.9688 200.344 22.9745 200.495 22.986C200.649 22.986 200.807 22.9918 200.971 23.0032L200.005 27.511Z" fill="white"/>
<path d="M201.402 23.4848H204.66L205.985 17.291H210.801L209.476 23.4848H215L214.073 27.8205H208.549L206.862 35.7005C206.543 37.1915 207.15 37.9371 208.686 37.9371H211.908L211.025 42.0663H206.845C204.886 42.0663 203.471 41.5904 202.602 40.6383C201.731 39.6862 201.483 38.3386 201.855 36.5951L203.733 27.8205H200.475L201.402 23.4848Z" fill="white"/>
</g>
<defs>
<clipPath id="clip0_766_6263">
<rect width="215" height="61" fill="white"/>
</clipPath>
</defs>
</svg>
