<svg width="397" height="52" viewBox="0 0 397 52" fill="none" xmlns="http://www.w3.org/2000/svg">
<g clip-path="url(#clip0_766_6277)">
<path d="M18.9553 44.7616H25.6814V5.875H15.898C6.05903 5.875 0.8894 10.9666 0.8894 18.4642C0.8894 24.4511 3.72436 27.9761 8.78282 31.613L0 44.7616H7.28196L17.0654 30.0463L13.6745 27.7523C9.56104 24.9547 7.5599 22.7726 7.5599 18.0726C7.5599 13.9321 10.4504 11.1345 15.9536 11.1345H18.9553V44.7616ZM148.641 45.3211C151.698 45.3211 153.866 44.7616 155.478 43.5866V38.1594C153.811 39.3344 151.809 40.0618 149.03 40.0618C144.305 40.0618 142.36 36.3689 142.36 30.5499C142.36 24.4511 144.75 21.3178 149.086 21.3178C151.643 21.3178 154.144 22.213 155.478 23.0523V17.4012C154.089 16.6178 151.643 16.0583 148.363 16.0583C139.914 16.0583 135.522 22.1571 135.522 30.7178C135.522 40.1177 139.803 45.3211 148.641 45.3211ZM107.284 42.8592V37.432C105.227 38.8308 101.781 40.0618 98.5566 40.0618C93.7205 40.0618 91.8861 37.7677 91.6082 33.0678H107.562V29.5428C107.562 19.7511 103.282 16.0583 96.6666 16.0583C88.6065 16.0583 84.7709 22.269 84.7709 30.7737C84.7709 40.5654 89.5514 45.3211 98.0007 45.3211C102.225 45.3211 105.338 44.2021 107.284 42.8592ZM128.407 44.7616H135.911L125.294 29.8225L134.633 16.6178H127.962L118.624 29.8225V16.6178H112.009V44.7616H118.624V31.1654L128.407 44.7616ZM83.1589 39.5023H80.2127V16.6178H60.9239V19.0238C60.9239 25.9059 60.4792 34.8023 58.1445 39.5023H56.0878V51.1961H62.2024V44.7616H77.0443V51.1961H83.1589V39.5023ZM46.6935 16.6178V27.7523H37.8551V16.6178H31.2402V44.7616H37.8551V33.0118H46.6935V44.7616H53.3084V16.6178H46.6935ZM96.5555 21.3178C99.8351 21.3178 100.836 24.0595 100.836 27.5844V28.144H91.6082C91.7749 23.6678 93.387 21.3178 96.5555 21.3178ZM73.5978 39.5023H64.2591C66.0935 35.2499 66.5938 27.5844 66.5938 22.7166V21.8773H73.5978V39.5023Z" fill="white"/>
<mask id="mask0_766_6277" style="mask-type:luminance" maskUnits="userSpaceOnUse" x="168" y="0" width="52" height="52">
<path d="M194.232 51.6482C208.401 51.6482 219.888 40.0863 219.888 25.8241C219.888 11.5618 208.401 0 194.232 0C180.063 0 168.576 11.5618 168.576 25.8241C168.576 40.0863 180.063 51.6482 194.232 51.6482Z" fill="white"/>
</mask>
<g mask="url(#mask0_766_6277)">
<path d="M219.888 0H168.576V51.6482H219.888V0Z" fill="url(#paint0_linear_766_6277)"/>
<path fill-rule="evenodd" clip-rule="evenodd" d="M226.647 3.10969C230.269 4.28219 232.222 8.17539 231.011 11.8054L217.951 50.9279C216.74 54.5579 212.822 56.5502 209.2 55.3778C205.578 54.205 203.624 50.312 204.836 46.682L209.206 33.5909L148.493 89.6748L138.832 79.0783L199.503 23.0328L186.288 26.2654C182.591 27.1697 178.905 24.877 178.055 21.1445C177.204 17.412 179.512 13.6532 183.208 12.7488L221.937 3.27531C223.392 2.69113 225.049 2.59218 226.647 3.10969Z" fill="url(#paint1_linear_766_6277)"/>
</g>
<mask id="mask1_766_6277" style="mask-type:luminance" maskUnits="userSpaceOnUse" x="231" y="0" width="168" height="52">
<path d="M398.194 0H231.004V51.6482H398.194V0Z" fill="white"/>
</mask>
<g mask="url(#mask1_766_6277)">
<path d="M237.563 52.8747V44.7616H257.241V52.8747H263.522V39.5023H259.909V5.875H237.229L236.673 21.8773C236.395 31.1094 235.673 36.5368 233.894 39.5023H231.281V52.8747H237.563ZM243.01 22.7726L243.399 11.1345H253.183V39.5023H240.676C241.843 36.8166 242.732 32.0047 243.01 22.7726Z" fill="white"/>
<path d="M267.982 16.6172V44.761H273.875L283.992 27.36V44.761H290.384V16.6172H284.492L274.375 34.0183V16.6172H267.982Z" fill="white"/>
<path d="M302.054 16.6181H295.939V52.875H302.554V41.4607C304.222 43.9786 306.668 45.3214 309.503 45.3214C315.951 45.3214 320.398 40.118 320.398 30.6621C320.398 21.2621 316.062 16.0586 309.836 16.0586C306.723 16.0586 304.166 17.5134 302.388 20.255L302.054 16.6181ZM307.835 40.0621C304.333 40.0621 302.554 37.2085 302.554 30.7181C302.554 24.1717 304.444 21.3181 308.169 21.3181C311.782 21.3181 313.561 24.1717 313.561 30.6621C313.561 37.2085 311.671 40.0621 307.835 40.0621Z" fill="white"/>
<path d="M346.22 42.8595V37.4323C344.163 38.8311 340.717 40.0621 337.493 40.0621C332.657 40.0621 330.822 37.768 330.544 33.0681H346.498V29.5431C346.498 19.7514 342.218 16.0586 335.603 16.0586C327.543 16.0586 323.707 22.2693 323.707 30.774C323.707 40.5656 328.488 45.3214 336.937 45.3214C341.162 45.3214 344.274 44.2024 346.22 42.8595ZM335.492 21.3181C338.771 21.3181 339.772 24.0598 339.772 27.5847V28.1443H330.544C330.711 23.6681 332.323 21.3181 335.492 21.3181Z" fill="white"/>
<path d="M367.328 44.761H374.832L364.215 29.8219L373.554 16.6172H366.883L357.545 29.8219V16.6172H350.93V44.761H357.545V31.1648L367.328 44.761Z" fill="white"/>
<path d="M397.009 21.8767V16.6172H374.83V21.8767H382.612V44.761H389.227V21.8767H397.009Z" fill="white"/>
</g>
</g>
<defs>
<linearGradient id="paint0_linear_766_6277" x1="175.967" y1="7.94759" x2="213.081" y2="43.7999" gradientUnits="userSpaceOnUse">
<stop stop-color="#315BEA"/>
<stop offset="1" stop-color="#2F2DD4"/>
</linearGradient>
<linearGradient id="paint1_linear_766_6277" x1="152.529" y1="56.9732" x2="256.334" y2="12.2355" gradientUnits="userSpaceOnUse">
<stop stop-color="#FFF01E"/>
<stop offset="1" stop-color="#FFD21E"/>
</linearGradient>
<clipPath id="clip0_766_6277">
<rect width="397" height="52" fill="white"/>
</clipPath>
</defs>
</svg>
